<mxfile host="app.diagrams.net" agent="Mozilla/5.0 (Windows NT 10.0; Win64; x64) AppleWebKit/537.36 (KHTML, like Gecko) Chrome/131.0.0.0 Safari/537.36" version="25.0.1" pages="5">
  <diagram id="NK8BpgSO674eT16O-3fF" name="collector-1">
    <mxGraphModel dx="1917" dy="686" grid="1" gridSize="10" guides="1" tooltips="1" connect="1" arrows="1" fold="1" page="1" pageScale="1" pageWidth="1169" pageHeight="827" math="0" shadow="0">
      <root>
        <mxCell id="0" />
        <mxCell id="1" parent="0" />
        <mxCell id="0CUL-oj3kYG71CB0ktjb-1" value="SERVER" style="rounded=0;whiteSpace=wrap;html=1;verticalAlign=bottom;fontSize=16;fontStyle=3" vertex="1" parent="1">
          <mxGeometry x="1423.5" y="192" width="460" height="463" as="geometry" />
        </mxCell>
        <mxCell id="0CUL-oj3kYG71CB0ktjb-2" value="" style="rounded=1;whiteSpace=wrap;html=1;fillColor=#d5e8d4;strokeColor=#82b366;" vertex="1" parent="1">
          <mxGeometry x="1583.5" y="388.5" width="140" height="62" as="geometry" />
        </mxCell>
        <mxCell id="0CUL-oj3kYG71CB0ktjb-3" value="" style="rounded=1;whiteSpace=wrap;html=1;fillColor=#d5e8d4;strokeColor=#82b366;" vertex="1" parent="1">
          <mxGeometry x="1743.5" y="500" width="120" height="74" as="geometry" />
        </mxCell>
        <mxCell id="0CUL-oj3kYG71CB0ktjb-4" value="" style="rounded=1;whiteSpace=wrap;html=1;fillColor=#d5e8d4;strokeColor=#82b366;" vertex="1" parent="1">
          <mxGeometry x="1433.75" y="500" width="120" height="75" as="geometry" />
        </mxCell>
        <mxCell id="0CUL-oj3kYG71CB0ktjb-5" value="" style="rounded=1;whiteSpace=wrap;html=1;fillColor=#dae8fc;strokeColor=#6c8ebf;" vertex="1" parent="1">
          <mxGeometry x="1743.5" y="230" width="120" height="55" as="geometry" />
        </mxCell>
        <mxCell id="0CUL-oj3kYG71CB0ktjb-6" value="" style="rounded=1;whiteSpace=wrap;html=1;fillColor=#dae8fc;strokeColor=#6c8ebf;" vertex="1" parent="1">
          <mxGeometry x="1461.75" y="230" width="210" height="55" as="geometry" />
        </mxCell>
        <mxCell id="0CUL-oj3kYG71CB0ktjb-7" value="SERVER" style="rounded=0;whiteSpace=wrap;html=1;verticalAlign=bottom;fontSize=16;fontStyle=3" vertex="1" parent="1">
          <mxGeometry x="366" y="199" width="460" height="460" as="geometry" />
        </mxCell>
        <mxCell id="0CUL-oj3kYG71CB0ktjb-8" value="Connector" style="whiteSpace=wrap;html=1;aspect=fixed;rounded=0;" vertex="1" parent="1">
          <mxGeometry x="391.00000000000006" y="539" width="90" height="90" as="geometry" />
        </mxCell>
        <mxCell id="0CUL-oj3kYG71CB0ktjb-9" style="orthogonalLoop=1;jettySize=auto;html=1;exitX=0.5;exitY=1;exitDx=0;exitDy=0;startArrow=classic;startFill=1;" edge="1" parent="1" source="0CUL-oj3kYG71CB0ktjb-10" target="0CUL-oj3kYG71CB0ktjb-8">
          <mxGeometry relative="1" as="geometry" />
        </mxCell>
        <mxCell id="0CUL-oj3kYG71CB0ktjb-10" value="Service" style="ellipse;whiteSpace=wrap;html=1;rounded=0;" vertex="1" parent="1">
          <mxGeometry x="376.00000000000006" y="399" width="120" height="80" as="geometry" />
        </mxCell>
        <mxCell id="0CUL-oj3kYG71CB0ktjb-11" value="Resource" style="ellipse;shape=cloud;whiteSpace=wrap;html=1;" vertex="1" parent="1">
          <mxGeometry x="344.00000000000006" y="659" width="141.5" height="100" as="geometry" />
        </mxCell>
        <mxCell id="0CUL-oj3kYG71CB0ktjb-12" value="" style="endArrow=classic;startArrow=classic;html=1;entryX=0.5;entryY=1;entryDx=0;entryDy=0;exitX=0.625;exitY=0.2;exitDx=0;exitDy=0;exitPerimeter=0;" edge="1" parent="1" source="0CUL-oj3kYG71CB0ktjb-11" target="0CUL-oj3kYG71CB0ktjb-8">
          <mxGeometry width="50" height="50" relative="1" as="geometry">
            <mxPoint x="286.00000000000006" y="549" as="sourcePoint" />
            <mxPoint x="336.00000000000006" y="499" as="targetPoint" />
          </mxGeometry>
        </mxCell>
        <mxCell id="0CUL-oj3kYG71CB0ktjb-13" style="orthogonalLoop=1;jettySize=auto;html=1;entryX=0.5;entryY=0;entryDx=0;entryDy=0;startArrow=classic;startFill=1;" edge="1" parent="1" source="0CUL-oj3kYG71CB0ktjb-14" target="0CUL-oj3kYG71CB0ktjb-15">
          <mxGeometry relative="1" as="geometry" />
        </mxCell>
        <mxCell id="0CUL-oj3kYG71CB0ktjb-14" value="Service" style="ellipse;whiteSpace=wrap;html=1;rounded=0;" vertex="1" parent="1">
          <mxGeometry x="525.37" y="399" width="120" height="80" as="geometry" />
        </mxCell>
        <mxCell id="0CUL-oj3kYG71CB0ktjb-15" value="Service" style="ellipse;whiteSpace=wrap;html=1;rounded=0;" vertex="1" parent="1">
          <mxGeometry x="525.37" y="539" width="120" height="80" as="geometry" />
        </mxCell>
        <mxCell id="0CUL-oj3kYG71CB0ktjb-16" style="edgeStyle=orthogonalEdgeStyle;orthogonalLoop=1;jettySize=auto;html=1;exitX=0.5;exitY=1;exitDx=0;exitDy=0;entryX=0.5;entryY=0;entryDx=0;entryDy=0;startArrow=classic;startFill=1;" edge="1" parent="1" source="0CUL-oj3kYG71CB0ktjb-18" target="0CUL-oj3kYG71CB0ktjb-10">
          <mxGeometry relative="1" as="geometry" />
        </mxCell>
        <mxCell id="0CUL-oj3kYG71CB0ktjb-17" style="edgeStyle=orthogonalEdgeStyle;orthogonalLoop=1;jettySize=auto;html=1;exitX=0.5;exitY=1;exitDx=0;exitDy=0;entryX=0.5;entryY=0;entryDx=0;entryDy=0;startArrow=classic;startFill=1;" edge="1" parent="1" source="0CUL-oj3kYG71CB0ktjb-18" target="0CUL-oj3kYG71CB0ktjb-14">
          <mxGeometry relative="1" as="geometry" />
        </mxCell>
        <mxCell id="0CUL-oj3kYG71CB0ktjb-18" value="API" style="rounded=0;whiteSpace=wrap;html=1;" vertex="1" parent="1">
          <mxGeometry x="415.37000000000006" y="269" width="190.63" height="60" as="geometry" />
        </mxCell>
        <mxCell id="0CUL-oj3kYG71CB0ktjb-19" value="Client" style="rhombus;whiteSpace=wrap;html=1;" vertex="1" parent="1">
          <mxGeometry x="458.56" y="69" width="104.25" height="100" as="geometry" />
        </mxCell>
        <mxCell id="0CUL-oj3kYG71CB0ktjb-20" value="" style="endArrow=classic;html=1;entryX=0.5;entryY=0;entryDx=0;entryDy=0;exitX=0.5;exitY=1;exitDx=0;exitDy=0;startArrow=classic;startFill=1;" edge="1" parent="1" source="0CUL-oj3kYG71CB0ktjb-19" target="0CUL-oj3kYG71CB0ktjb-18">
          <mxGeometry width="50" height="50" relative="1" as="geometry">
            <mxPoint x="530.375" y="169" as="sourcePoint" />
            <mxPoint x="522.5899999999999" y="199" as="targetPoint" />
          </mxGeometry>
        </mxCell>
        <mxCell id="0CUL-oj3kYG71CB0ktjb-21" value="" style="aspect=fixed;sketch=0;html=1;dashed=0;whitespace=wrap;verticalLabelPosition=bottom;verticalAlign=top;fillColor=#000000;strokeColor=#ffffff;points=[[0.005,0.63,0],[0.1,0.2,0],[0.9,0.2,0],[0.5,0,0],[0.995,0.63,0],[0.72,0.99,0],[0.5,1,0],[0.28,0.99,0]];shape=mxgraph.kubernetes.icon2;prIcon=api" vertex="1" parent="1">
          <mxGeometry x="443.25000000000006" y="275" width="50" height="48" as="geometry" />
        </mxCell>
        <mxCell id="0CUL-oj3kYG71CB0ktjb-22" style="rounded=0;orthogonalLoop=1;jettySize=auto;html=1;exitX=0.5;exitY=1;exitDx=0;exitDy=0;startArrow=classic;startFill=1;" edge="1" parent="1" source="0CUL-oj3kYG71CB0ktjb-26" target="0CUL-oj3kYG71CB0ktjb-23">
          <mxGeometry relative="1" as="geometry">
            <mxPoint x="746" y="309" as="sourcePoint" />
          </mxGeometry>
        </mxCell>
        <mxCell id="0CUL-oj3kYG71CB0ktjb-23" value="Connector" style="whiteSpace=wrap;html=1;aspect=fixed;rounded=0;" vertex="1" parent="1">
          <mxGeometry x="701" y="539" width="90" height="90" as="geometry" />
        </mxCell>
        <mxCell id="0CUL-oj3kYG71CB0ktjb-24" value="Resource" style="ellipse;shape=cloud;whiteSpace=wrap;html=1;" vertex="1" parent="1">
          <mxGeometry x="655" y="659" width="141.5" height="100" as="geometry" />
        </mxCell>
        <mxCell id="0CUL-oj3kYG71CB0ktjb-25" style="rounded=0;orthogonalLoop=1;jettySize=auto;html=1;exitX=0.5;exitY=1;exitDx=0;exitDy=0;startArrow=classic;startFill=1;entryX=0.625;entryY=0.2;entryDx=0;entryDy=0;entryPerimeter=0;" edge="1" parent="1" source="0CUL-oj3kYG71CB0ktjb-23" target="0CUL-oj3kYG71CB0ktjb-24">
          <mxGeometry relative="1" as="geometry" />
        </mxCell>
        <mxCell id="0CUL-oj3kYG71CB0ktjb-26" value="BATCH" style="shape=hexagon;perimeter=hexagonPerimeter2;whiteSpace=wrap;html=1;fixedSize=1;" vertex="1" parent="1">
          <mxGeometry x="696" y="263.5" width="95" height="60" as="geometry" />
        </mxCell>
        <mxCell id="0CUL-oj3kYG71CB0ktjb-27" value="" style="verticalLabelPosition=bottom;html=1;verticalAlign=top;align=center;strokeColor=none;fillColor=#000000;shape=mxgraph.azure.automation;pointerEvents=1;" vertex="1" parent="1">
          <mxGeometry x="768" y="262.5" width="42.5" height="37" as="geometry" />
        </mxCell>
        <mxCell id="0CUL-oj3kYG71CB0ktjb-28" value="Connector" style="whiteSpace=wrap;html=1;aspect=fixed;rounded=0;" vertex="1" parent="1">
          <mxGeometry x="1448.5" y="532" width="90" height="90" as="geometry" />
        </mxCell>
        <mxCell id="0CUL-oj3kYG71CB0ktjb-29" style="orthogonalLoop=1;jettySize=auto;html=1;exitX=0.5;exitY=1;exitDx=0;exitDy=0;startArrow=classic;startFill=1;entryX=0.5;entryY=0;entryDx=0;entryDy=0;" edge="1" parent="1" source="0CUL-oj3kYG71CB0ktjb-30" target="0CUL-oj3kYG71CB0ktjb-4">
          <mxGeometry relative="1" as="geometry">
            <mxPoint x="1493.75" y="495" as="targetPoint" />
          </mxGeometry>
        </mxCell>
        <mxCell id="0CUL-oj3kYG71CB0ktjb-30" value="Service" style="ellipse;whiteSpace=wrap;html=1;rounded=0;" vertex="1" parent="1">
          <mxGeometry x="1433.75" y="381" width="120" height="80" as="geometry" />
        </mxCell>
        <mxCell id="0CUL-oj3kYG71CB0ktjb-31" value="Resource" style="ellipse;shape=cloud;whiteSpace=wrap;html=1;" vertex="1" parent="1">
          <mxGeometry x="1403" y="655" width="141.5" height="100" as="geometry" />
        </mxCell>
        <mxCell id="0CUL-oj3kYG71CB0ktjb-32" value="" style="endArrow=classic;startArrow=classic;html=1;entryX=0.5;entryY=1;entryDx=0;entryDy=0;exitX=0.625;exitY=0.2;exitDx=0;exitDy=0;exitPerimeter=0;" edge="1" parent="1" source="0CUL-oj3kYG71CB0ktjb-31" target="0CUL-oj3kYG71CB0ktjb-28">
          <mxGeometry width="50" height="50" relative="1" as="geometry">
            <mxPoint x="1343.5" y="577" as="sourcePoint" />
            <mxPoint x="1493.4999999999995" y="657" as="targetPoint" />
          </mxGeometry>
        </mxCell>
        <mxCell id="0CUL-oj3kYG71CB0ktjb-33" style="orthogonalLoop=1;jettySize=auto;html=1;entryX=0.5;entryY=0;entryDx=0;entryDy=0;startArrow=classic;startFill=1;" edge="1" parent="1" source="0CUL-oj3kYG71CB0ktjb-34" target="0CUL-oj3kYG71CB0ktjb-35">
          <mxGeometry relative="1" as="geometry" />
        </mxCell>
        <mxCell id="0CUL-oj3kYG71CB0ktjb-34" value="Service" style="ellipse;whiteSpace=wrap;html=1;rounded=0;" vertex="1" parent="1">
          <mxGeometry x="1592.5" y="410.5" width="120" height="80" as="geometry" />
        </mxCell>
        <mxCell id="0CUL-oj3kYG71CB0ktjb-35" value="Service" style="ellipse;whiteSpace=wrap;html=1;rounded=0;" vertex="1" parent="1">
          <mxGeometry x="1593.5" y="532" width="120" height="80" as="geometry" />
        </mxCell>
        <mxCell id="0CUL-oj3kYG71CB0ktjb-36" style="edgeStyle=orthogonalEdgeStyle;orthogonalLoop=1;jettySize=auto;html=1;exitX=0.5;exitY=1;exitDx=0;exitDy=0;entryX=0.5;entryY=0;entryDx=0;entryDy=0;startArrow=classic;startFill=1;" edge="1" parent="1" source="0CUL-oj3kYG71CB0ktjb-38" target="0CUL-oj3kYG71CB0ktjb-30">
          <mxGeometry relative="1" as="geometry" />
        </mxCell>
        <mxCell id="0CUL-oj3kYG71CB0ktjb-37" style="edgeStyle=orthogonalEdgeStyle;orthogonalLoop=1;jettySize=auto;html=1;exitX=0.5;exitY=1;exitDx=0;exitDy=0;startArrow=classic;startFill=1;entryX=0.5;entryY=0;entryDx=0;entryDy=0;" edge="1" parent="1" source="0CUL-oj3kYG71CB0ktjb-38" target="0CUL-oj3kYG71CB0ktjb-2">
          <mxGeometry relative="1" as="geometry">
            <mxPoint x="1653.5" y="392" as="targetPoint" />
          </mxGeometry>
        </mxCell>
        <mxCell id="0CUL-oj3kYG71CB0ktjb-38" value="API" style="rounded=0;whiteSpace=wrap;html=1;" vertex="1" parent="1">
          <mxGeometry x="1472.87" y="262" width="190.63" height="60" as="geometry" />
        </mxCell>
        <mxCell id="0CUL-oj3kYG71CB0ktjb-39" value="Client" style="rhombus;whiteSpace=wrap;html=1;" vertex="1" parent="1">
          <mxGeometry x="1516.06" y="62" width="104.25" height="100" as="geometry" />
        </mxCell>
        <mxCell id="0CUL-oj3kYG71CB0ktjb-40" value="" style="endArrow=classic;html=1;exitX=0.5;exitY=1;exitDx=0;exitDy=0;startArrow=classic;startFill=1;entryX=0.5;entryY=0;entryDx=0;entryDy=0;" edge="1" parent="1" source="0CUL-oj3kYG71CB0ktjb-39" target="0CUL-oj3kYG71CB0ktjb-6">
          <mxGeometry width="50" height="50" relative="1" as="geometry">
            <mxPoint x="1587.875" y="162" as="sourcePoint" />
            <mxPoint x="1567.75" y="205" as="targetPoint" />
          </mxGeometry>
        </mxCell>
        <mxCell id="0CUL-oj3kYG71CB0ktjb-41" value="" style="aspect=fixed;sketch=0;html=1;dashed=0;whitespace=wrap;verticalLabelPosition=bottom;verticalAlign=top;fillColor=#000000;strokeColor=#ffffff;points=[[0.005,0.63,0],[0.1,0.2,0],[0.9,0.2,0],[0.5,0,0],[0.995,0.63,0],[0.72,0.99,0],[0.5,1,0],[0.28,0.99,0]];shape=mxgraph.kubernetes.icon2;prIcon=api" vertex="1" parent="1">
          <mxGeometry x="1500.75" y="268" width="50" height="48" as="geometry" />
        </mxCell>
        <mxCell id="0CUL-oj3kYG71CB0ktjb-42" style="rounded=0;orthogonalLoop=1;jettySize=auto;html=1;exitX=0.5;exitY=1;exitDx=0;exitDy=0;startArrow=classic;startFill=1;entryX=0.5;entryY=0;entryDx=0;entryDy=0;" edge="1" parent="1" source="0CUL-oj3kYG71CB0ktjb-46" target="0CUL-oj3kYG71CB0ktjb-3">
          <mxGeometry relative="1" as="geometry">
            <mxPoint x="1803.5" y="302" as="sourcePoint" />
            <mxPoint x="1803.75" y="495" as="targetPoint" />
          </mxGeometry>
        </mxCell>
        <mxCell id="0CUL-oj3kYG71CB0ktjb-43" value="Connector" style="whiteSpace=wrap;html=1;aspect=fixed;rounded=0;" vertex="1" parent="1">
          <mxGeometry x="1759.0900000000001" y="532" width="90" height="90" as="geometry" />
        </mxCell>
        <mxCell id="0CUL-oj3kYG71CB0ktjb-44" value="Resource" style="ellipse;shape=cloud;whiteSpace=wrap;html=1;" vertex="1" parent="1">
          <mxGeometry x="1713.5" y="665" width="141.5" height="100" as="geometry" />
        </mxCell>
        <mxCell id="0CUL-oj3kYG71CB0ktjb-45" style="rounded=0;orthogonalLoop=1;jettySize=auto;html=1;exitX=0.5;exitY=1;exitDx=0;exitDy=0;startArrow=classic;startFill=1;entryX=0.625;entryY=0.2;entryDx=0;entryDy=0;entryPerimeter=0;" edge="1" parent="1" source="0CUL-oj3kYG71CB0ktjb-43" target="0CUL-oj3kYG71CB0ktjb-44">
          <mxGeometry relative="1" as="geometry">
            <mxPoint x="1804.0900000000001" y="657" as="sourcePoint" />
          </mxGeometry>
        </mxCell>
        <mxCell id="0CUL-oj3kYG71CB0ktjb-46" value="BATCH" style="shape=hexagon;perimeter=hexagonPerimeter2;whiteSpace=wrap;html=1;fixedSize=1;" vertex="1" parent="1">
          <mxGeometry x="1753.5" y="262" width="95" height="60" as="geometry" />
        </mxCell>
        <mxCell id="0CUL-oj3kYG71CB0ktjb-47" value="" style="verticalLabelPosition=bottom;html=1;verticalAlign=top;align=center;strokeColor=none;fillColor=#000000;shape=mxgraph.azure.automation;pointerEvents=1;" vertex="1" parent="1">
          <mxGeometry x="1825.5" y="255.5" width="42.5" height="37" as="geometry" />
        </mxCell>
        <mxCell id="0CUL-oj3kYG71CB0ktjb-48" style="edgeStyle=orthogonalEdgeStyle;rounded=0;orthogonalLoop=1;jettySize=auto;html=1;exitX=0;exitY=0.5;exitDx=0;exitDy=0;entryX=0.5;entryY=0;entryDx=0;entryDy=0;curved=1;" edge="1" parent="1" source="0CUL-oj3kYG71CB0ktjb-26" target="0CUL-oj3kYG71CB0ktjb-26">
          <mxGeometry relative="1" as="geometry">
            <Array as="points">
              <mxPoint x="656" y="294" />
              <mxPoint x="656" y="219" />
              <mxPoint x="743" y="219" />
            </Array>
          </mxGeometry>
        </mxCell>
        <mxCell id="0CUL-oj3kYG71CB0ktjb-49" style="edgeStyle=orthogonalEdgeStyle;rounded=0;orthogonalLoop=1;jettySize=auto;html=1;exitX=0;exitY=0.5;exitDx=0;exitDy=0;curved=1;entryX=0.5;entryY=0;entryDx=0;entryDy=0;" edge="1" parent="1" source="0CUL-oj3kYG71CB0ktjb-46" target="0CUL-oj3kYG71CB0ktjb-5">
          <mxGeometry relative="1" as="geometry">
            <mxPoint x="1752.75" y="286" as="sourcePoint" />
            <mxPoint x="1800.75" y="256" as="targetPoint" />
            <Array as="points">
              <mxPoint x="1712.5" y="292" />
              <mxPoint x="1712.5" y="195" />
              <mxPoint x="1803.5" y="195" />
            </Array>
          </mxGeometry>
        </mxCell>
        <mxCell id="0CUL-oj3kYG71CB0ktjb-50" value="&lt;h1 style=&quot;margin-top: 0px;&quot;&gt;Session&lt;/h1&gt;&lt;p&gt;&lt;/p&gt;&lt;ul&gt;&lt;li&gt;RestSession&lt;/li&gt;&lt;li&gt;MainSession[type=BATCH]&lt;/li&gt;&lt;/ul&gt;&lt;p&gt;&lt;/p&gt;" style="text;html=1;whiteSpace=wrap;overflow=hidden;rounded=0;fontColor=#5c79a4;fontFamily=Architects Daughter;fontSource=https%3A%2F%2Ffonts.googleapis.com%2Fcss%3Ffamily%3DArchitects%2BDaughter;" vertex="1" parent="1">
          <mxGeometry x="1903.72" y="230" width="196" height="120" as="geometry" />
        </mxCell>
        <mxCell id="0CUL-oj3kYG71CB0ktjb-51" value="&lt;h1 style=&quot;margin-top: 0px;&quot;&gt;Request&lt;/h1&gt;&lt;div&gt;&lt;ul&gt;&lt;li&gt;LocalRequest&lt;/li&gt;&lt;li&gt;DatabaseRequest&lt;/li&gt;&lt;li&gt;RestRequest&lt;/li&gt;&lt;li&gt;FtpRequest&lt;/li&gt;&lt;li&gt;MailRequest&lt;/li&gt;&lt;li&gt;LdapRequest&lt;/li&gt;&lt;/ul&gt;&lt;/div&gt;&lt;div&gt;&lt;br&gt;&lt;/div&gt;" style="text;html=1;whiteSpace=wrap;overflow=hidden;rounded=0;fontColor=#456F2C;fontFamily=Architects Daughter;fontSource=https%3A%2F%2Ffonts.googleapis.com%2Fcss%3Ffamily%3DArchitects%2BDaughter;" vertex="1" parent="1">
          <mxGeometry x="1903.72" y="388.5" width="200" height="164" as="geometry" />
        </mxCell>
        <mxCell id="0CUL-oj3kYG71CB0ktjb-52" value="" style="group" vertex="1" connectable="0" parent="1">
          <mxGeometry x="1786.31" y="507" width="39.190000000000055" height="50" as="geometry" />
        </mxCell>
        <mxCell id="0CUL-oj3kYG71CB0ktjb-53" value="" style="html=1;verticalLabelPosition=bottom;align=center;labelBackgroundColor=#ffffff;verticalAlign=top;strokeWidth=2;strokeColor=#82b366;shadow=0;dashed=0;shape=mxgraph.ios7.icons.clock;fillColor=#d5e8d4;" vertex="1" parent="0CUL-oj3kYG71CB0ktjb-52">
          <mxGeometry x="4.940000000000055" y="10" width="30" height="30" as="geometry" />
        </mxCell>
        <mxCell id="0CUL-oj3kYG71CB0ktjb-54" value="" style="endArrow=classic;html=1;rounded=0;fillColor=#d5e8d4;strokeColor=#82b366;strokeWidth=2;" edge="1" parent="0CUL-oj3kYG71CB0ktjb-52">
          <mxGeometry width="50" height="50" relative="1" as="geometry">
            <mxPoint x="0.19000000000005457" as="sourcePoint" />
            <mxPoint y="50" as="targetPoint" />
          </mxGeometry>
        </mxCell>
        <mxCell id="0CUL-oj3kYG71CB0ktjb-55" value="" style="endArrow=classic;html=1;rounded=0;fillColor=#d5e8d4;strokeColor=#82b366;curved=0;strokeWidth=2;" edge="1" parent="0CUL-oj3kYG71CB0ktjb-52">
          <mxGeometry width="50" height="50" relative="1" as="geometry">
            <mxPoint x="39.190000000000055" y="49" as="sourcePoint" />
            <mxPoint x="39.190000000000055" as="targetPoint" />
          </mxGeometry>
        </mxCell>
        <mxCell id="0CUL-oj3kYG71CB0ktjb-56" value="" style="group" vertex="1" connectable="0" parent="1">
          <mxGeometry x="1474.15" y="507" width="39.190000000000055" height="50" as="geometry" />
        </mxCell>
        <mxCell id="0CUL-oj3kYG71CB0ktjb-57" value="" style="html=1;verticalLabelPosition=bottom;align=center;labelBackgroundColor=#ffffff;verticalAlign=top;strokeWidth=2;strokeColor=#82b366;shadow=0;dashed=0;shape=mxgraph.ios7.icons.clock;fillColor=#d5e8d4;" vertex="1" parent="0CUL-oj3kYG71CB0ktjb-56">
          <mxGeometry x="4.940000000000055" y="10" width="30" height="30" as="geometry" />
        </mxCell>
        <mxCell id="0CUL-oj3kYG71CB0ktjb-58" value="" style="endArrow=classic;html=1;rounded=0;fillColor=#d5e8d4;strokeColor=#82b366;strokeWidth=2;" edge="1" parent="0CUL-oj3kYG71CB0ktjb-56">
          <mxGeometry width="50" height="50" relative="1" as="geometry">
            <mxPoint x="0.19000000000005457" as="sourcePoint" />
            <mxPoint y="50" as="targetPoint" />
          </mxGeometry>
        </mxCell>
        <mxCell id="0CUL-oj3kYG71CB0ktjb-59" value="" style="endArrow=classic;html=1;rounded=0;fillColor=#d5e8d4;strokeColor=#82b366;curved=0;strokeWidth=2;" edge="1" parent="0CUL-oj3kYG71CB0ktjb-56">
          <mxGeometry width="50" height="50" relative="1" as="geometry">
            <mxPoint x="39.190000000000055" y="49" as="sourcePoint" />
            <mxPoint x="39.190000000000055" as="targetPoint" />
          </mxGeometry>
        </mxCell>
        <mxCell id="0CUL-oj3kYG71CB0ktjb-61" value="" style="group" vertex="1" connectable="0" parent="1">
          <mxGeometry x="1633.9" y="387.5" width="39.190000000000055" height="50" as="geometry" />
        </mxCell>
        <mxCell id="0CUL-oj3kYG71CB0ktjb-62" value="" style="html=1;verticalLabelPosition=bottom;align=center;labelBackgroundColor=#ffffff;verticalAlign=top;strokeWidth=2;strokeColor=#82b366;shadow=0;dashed=0;shape=mxgraph.ios7.icons.clock;fillColor=#d5e8d4;" vertex="1" parent="0CUL-oj3kYG71CB0ktjb-61">
          <mxGeometry x="4.940000000000055" y="10" width="30" height="30" as="geometry" />
        </mxCell>
        <mxCell id="0CUL-oj3kYG71CB0ktjb-63" value="" style="endArrow=classic;html=1;rounded=0;fillColor=#d5e8d4;strokeColor=#82b366;strokeWidth=2;" edge="1" parent="0CUL-oj3kYG71CB0ktjb-61">
          <mxGeometry width="50" height="50" relative="1" as="geometry">
            <mxPoint x="0.19000000000005457" as="sourcePoint" />
            <mxPoint y="50" as="targetPoint" />
          </mxGeometry>
        </mxCell>
        <mxCell id="0CUL-oj3kYG71CB0ktjb-64" value="" style="endArrow=classic;html=1;rounded=0;fillColor=#d5e8d4;strokeColor=#82b366;curved=0;strokeWidth=2;" edge="1" parent="0CUL-oj3kYG71CB0ktjb-61">
          <mxGeometry width="50" height="50" relative="1" as="geometry">
            <mxPoint x="39.190000000000055" y="49" as="sourcePoint" />
            <mxPoint x="39.190000000000055" as="targetPoint" />
          </mxGeometry>
        </mxCell>
        <mxCell id="0CUL-oj3kYG71CB0ktjb-65" value="" style="group" vertex="1" connectable="0" parent="1">
          <mxGeometry x="1784.5" y="235" width="39.190000000000055" height="50" as="geometry" />
        </mxCell>
        <mxCell id="0CUL-oj3kYG71CB0ktjb-66" value="" style="html=1;verticalLabelPosition=bottom;align=center;labelBackgroundColor=#ffffff;verticalAlign=top;strokeWidth=2;strokeColor=#6c8ebf;shadow=0;dashed=0;shape=mxgraph.ios7.icons.clock;fillColor=#dae8fc;" vertex="1" parent="0CUL-oj3kYG71CB0ktjb-65">
          <mxGeometry x="4.940000000000055" y="10" width="30" height="30" as="geometry" />
        </mxCell>
        <mxCell id="0CUL-oj3kYG71CB0ktjb-67" value="" style="endArrow=classic;html=1;rounded=0;fillColor=#dae8fc;strokeColor=#6c8ebf;strokeWidth=2;" edge="1" parent="0CUL-oj3kYG71CB0ktjb-65">
          <mxGeometry width="50" height="50" relative="1" as="geometry">
            <mxPoint x="0.19000000000005457" as="sourcePoint" />
            <mxPoint y="50" as="targetPoint" />
          </mxGeometry>
        </mxCell>
        <mxCell id="0CUL-oj3kYG71CB0ktjb-68" value="" style="endArrow=classic;html=1;rounded=0;fillColor=#dae8fc;strokeColor=#6c8ebf;curved=0;strokeWidth=2;" edge="1" parent="0CUL-oj3kYG71CB0ktjb-65">
          <mxGeometry width="50" height="50" relative="1" as="geometry">
            <mxPoint x="39.190000000000055" y="49" as="sourcePoint" />
            <mxPoint x="39.190000000000055" as="targetPoint" />
          </mxGeometry>
        </mxCell>
        <mxCell id="0CUL-oj3kYG71CB0ktjb-69" value="" style="group" vertex="1" connectable="0" parent="1">
          <mxGeometry x="1544.5" y="235" width="39.190000000000055" height="50" as="geometry" />
        </mxCell>
        <mxCell id="0CUL-oj3kYG71CB0ktjb-70" value="" style="html=1;verticalLabelPosition=bottom;align=center;labelBackgroundColor=#ffffff;verticalAlign=top;strokeWidth=2;strokeColor=#6c8ebf;shadow=0;dashed=0;shape=mxgraph.ios7.icons.clock;fillColor=#dae8fc;" vertex="1" parent="0CUL-oj3kYG71CB0ktjb-69">
          <mxGeometry x="4.940000000000055" y="10" width="30" height="30" as="geometry" />
        </mxCell>
        <mxCell id="0CUL-oj3kYG71CB0ktjb-71" value="" style="endArrow=classic;html=1;rounded=0;fillColor=#dae8fc;strokeColor=#6c8ebf;strokeWidth=2;" edge="1" parent="0CUL-oj3kYG71CB0ktjb-69">
          <mxGeometry width="50" height="50" relative="1" as="geometry">
            <mxPoint x="0.19000000000005457" as="sourcePoint" />
            <mxPoint y="50" as="targetPoint" />
          </mxGeometry>
        </mxCell>
        <mxCell id="0CUL-oj3kYG71CB0ktjb-72" value="" style="endArrow=classic;html=1;rounded=0;fillColor=#dae8fc;strokeColor=#6c8ebf;curved=0;strokeWidth=2;" edge="1" parent="0CUL-oj3kYG71CB0ktjb-69">
          <mxGeometry width="50" height="50" relative="1" as="geometry">
            <mxPoint x="39.190000000000055" y="49" as="sourcePoint" />
            <mxPoint x="39.190000000000055" as="targetPoint" />
          </mxGeometry>
        </mxCell>
        <mxCell id="bW22f4OdI-EI9FVOknlI-1" value="&lt;font style=&quot;font-size: 12px;&quot;&gt;INSPECT &lt;/font&gt;&lt;font style=&quot;font-size: 8px;&quot;&gt;inside&lt;/font&gt;" style="text;strokeColor=none;fillColor=none;html=1;fontSize=24;fontStyle=1;verticalAlign=middle;align=center;fontColor=default;" vertex="1" parent="1">
          <mxGeometry x="1799.75" y="162" width="90" height="40" as="geometry" />
        </mxCell>
      </root>
    </mxGraphModel>
  </diagram>
  <diagram id="dqGqwlYTPcpCqpnUJcue" name="collector-2">
    <mxGraphModel dx="1222" dy="-193" grid="1" gridSize="10" guides="1" tooltips="1" connect="1" arrows="1" fold="1" page="1" pageScale="1" pageWidth="1169" pageHeight="827" math="0" shadow="0">
      <root>
        <mxCell id="0" />
        <mxCell id="1" parent="0" />
        <mxCell id="iTMEuLaaTNvBRRhwc5ZL-1" value="WEBAPP" style="rounded=0;whiteSpace=wrap;html=1;verticalAlign=bottom;fontSize=16;fontStyle=3" vertex="1" parent="1">
          <mxGeometry x="1293.65" y="1060" width="784.19" height="290" as="geometry" />
        </mxCell>
        <mxCell id="iTMEuLaaTNvBRRhwc5ZL-2" value="" style="rounded=1;whiteSpace=wrap;html=1;fillColor=#d5e8d4;strokeColor=#82b366;" vertex="1" parent="1">
          <mxGeometry x="1650.35" y="1205" width="140" height="65" as="geometry" />
        </mxCell>
        <mxCell id="iTMEuLaaTNvBRRhwc5ZL-3" value="" style="rounded=1;whiteSpace=wrap;html=1;fillColor=#d5e8d4;strokeColor=#82b366;" vertex="1" parent="1">
          <mxGeometry x="1869" y="1205" width="118.84" height="70" as="geometry" />
        </mxCell>
        <mxCell id="iTMEuLaaTNvBRRhwc5ZL-8" value="" style="rounded=1;whiteSpace=wrap;html=1;fillColor=#d5e8d4;strokeColor=#82b366;" vertex="1" parent="1">
          <mxGeometry x="1469" y="1205" width="118.84" height="70" as="geometry" />
        </mxCell>
        <mxCell id="iTMEuLaaTNvBRRhwc5ZL-13" value="" style="rounded=1;whiteSpace=wrap;html=1;fillColor=#d5e8d4;strokeColor=#82b366;" vertex="1" parent="1">
          <mxGeometry x="1309" y="1205" width="110" height="70" as="geometry" />
        </mxCell>
        <mxCell id="iTMEuLaaTNvBRRhwc5ZL-18" value="" style="rounded=1;whiteSpace=wrap;html=1;fillColor=#dae8fc;strokeColor=#6c8ebf;" vertex="1" parent="1">
          <mxGeometry x="1813.84" y="1075" width="222.91" height="63" as="geometry" />
        </mxCell>
        <mxCell id="iTMEuLaaTNvBRRhwc5ZL-19" value="" style="rounded=1;whiteSpace=wrap;html=1;fillColor=#dae8fc;strokeColor=#6c8ebf;" vertex="1" parent="1">
          <mxGeometry x="1638.93" y="1075" width="107.82" height="63" as="geometry" />
        </mxCell>
        <mxCell id="iTMEuLaaTNvBRRhwc5ZL-20" value="" style="rounded=1;whiteSpace=wrap;html=1;fillColor=#dae8fc;strokeColor=#6c8ebf;" vertex="1" parent="1">
          <mxGeometry x="1427.84" y="1075" width="198.91" height="63" as="geometry" />
        </mxCell>
        <mxCell id="iTMEuLaaTNvBRRhwc5ZL-21" value="" style="rounded=1;whiteSpace=wrap;html=1;fillColor=#dae8fc;strokeColor=#6c8ebf;" vertex="1" parent="1">
          <mxGeometry x="1307.84" y="1075" width="108.91" height="63" as="geometry" />
        </mxCell>
        <mxCell id="iTMEuLaaTNvBRRhwc5ZL-22" value="WEBAPP" style="rounded=0;whiteSpace=wrap;html=1;verticalAlign=bottom;fontSize=16;fontStyle=3" vertex="1" parent="1">
          <mxGeometry x="234.65" y="1045" width="784.19" height="280" as="geometry" />
        </mxCell>
        <mxCell id="iTMEuLaaTNvBRRhwc5ZL-23" style="rounded=0;orthogonalLoop=1;jettySize=auto;html=1;exitX=0;exitY=0;exitDx=55;exitDy=70;exitPerimeter=0;entryX=0.5;entryY=0;entryDx=0;entryDy=0;startArrow=classic;startFill=1;" edge="1" parent="1" source="iTMEuLaaTNvBRRhwc5ZL-24" target="iTMEuLaaTNvBRRhwc5ZL-37">
          <mxGeometry relative="1" as="geometry" />
        </mxCell>
        <mxCell id="iTMEuLaaTNvBRRhwc5ZL-24" value="URL(1)" style="html=1;shadow=0;dashed=0;align=center;verticalAlign=middle;shape=mxgraph.arrows2.arrow;dy=0;dx=30;notch=30;" vertex="1" parent="1">
          <mxGeometry x="248.84000000000003" y="1090" width="140" height="70" as="geometry" />
        </mxCell>
        <mxCell id="iTMEuLaaTNvBRRhwc5ZL-25" style="rounded=0;orthogonalLoop=1;jettySize=auto;html=1;exitX=0;exitY=0;exitDx=100.875;exitDy=70;exitPerimeter=0;entryX=0.5;entryY=0;entryDx=0;entryDy=0;startArrow=classic;startFill=1;" edge="1" parent="1" source="iTMEuLaaTNvBRRhwc5ZL-26" target="iTMEuLaaTNvBRRhwc5ZL-38">
          <mxGeometry relative="1" as="geometry" />
        </mxCell>
        <mxCell id="iTMEuLaaTNvBRRhwc5ZL-26" value="URL(2)" style="html=1;shadow=0;dashed=0;align=center;verticalAlign=middle;shape=mxgraph.arrows2.arrow;dy=0;dx=30;notch=30;" vertex="1" parent="1">
          <mxGeometry x="368.84000000000003" y="1090" width="231.75" height="70" as="geometry" />
        </mxCell>
        <mxCell id="iTMEuLaaTNvBRRhwc5ZL-27" value="URL(3)" style="html=1;shadow=0;dashed=0;align=center;verticalAlign=middle;shape=mxgraph.arrows2.arrow;dy=0;dx=30;notch=30;" vertex="1" parent="1">
          <mxGeometry x="581.34" y="1090" width="137.5" height="70" as="geometry" />
        </mxCell>
        <mxCell id="iTMEuLaaTNvBRRhwc5ZL-28" style="rounded=0;orthogonalLoop=1;jettySize=auto;html=1;exitX=0;exitY=0;exitDx=111.99999999999999;exitDy=70;exitPerimeter=0;entryX=0.5;entryY=0;entryDx=0;entryDy=0;startArrow=classic;startFill=1;" edge="1" parent="1" source="iTMEuLaaTNvBRRhwc5ZL-29" target="iTMEuLaaTNvBRRhwc5ZL-39">
          <mxGeometry relative="1" as="geometry" />
        </mxCell>
        <mxCell id="iTMEuLaaTNvBRRhwc5ZL-29" value="URL(n)" style="html=1;shadow=0;dashed=0;align=center;verticalAlign=middle;shape=mxgraph.arrows2.arrow;dy=0;dx=30;notch=30;" vertex="1" parent="1">
          <mxGeometry x="754.84" y="1090" width="254" height="70" as="geometry" />
        </mxCell>
        <mxCell id="iTMEuLaaTNvBRRhwc5ZL-30" value="USER" style="shape=actor;whiteSpace=wrap;html=1;verticalAlign=bottom;" vertex="1" parent="1">
          <mxGeometry x="150" y="1090" width="67.69" height="72.5" as="geometry" />
        </mxCell>
        <mxCell id="iTMEuLaaTNvBRRhwc5ZL-31" value="" style="shape=waypoint;sketch=0;fillStyle=solid;size=6;pointerEvents=1;points=[];fillColor=none;resizable=0;rotatable=0;perimeter=centerPerimeter;snapToPoint=1;" vertex="1" parent="1">
          <mxGeometry x="721.09" y="1115" width="20" height="20" as="geometry" />
        </mxCell>
        <mxCell id="iTMEuLaaTNvBRRhwc5ZL-32" value="" style="shape=waypoint;sketch=0;fillStyle=solid;size=6;pointerEvents=1;points=[];fillColor=none;resizable=0;rotatable=0;perimeter=centerPerimeter;snapToPoint=1;" vertex="1" parent="1">
          <mxGeometry x="734.84" y="1115" width="20" height="20" as="geometry" />
        </mxCell>
        <mxCell id="iTMEuLaaTNvBRRhwc5ZL-33" value="" style="shape=waypoint;sketch=0;fillStyle=solid;size=6;pointerEvents=1;points=[];fillColor=none;resizable=0;rotatable=0;perimeter=centerPerimeter;snapToPoint=1;" vertex="1" parent="1">
          <mxGeometry x="748.52" y="1115" width="20" height="20" as="geometry" />
        </mxCell>
        <mxCell id="iTMEuLaaTNvBRRhwc5ZL-34" value="Resource" style="ellipse;shape=cloud;whiteSpace=wrap;html=1;" vertex="1" parent="1">
          <mxGeometry x="216.53" y="1335" width="141.5" height="100" as="geometry" />
        </mxCell>
        <mxCell id="iTMEuLaaTNvBRRhwc5ZL-35" value="Resource" style="ellipse;shape=cloud;whiteSpace=wrap;html=1;" vertex="1" parent="1">
          <mxGeometry x="382.53" y="1335" width="141.5" height="100" as="geometry" />
        </mxCell>
        <mxCell id="iTMEuLaaTNvBRRhwc5ZL-36" value="Resource" style="ellipse;shape=cloud;whiteSpace=wrap;html=1;" vertex="1" parent="1">
          <mxGeometry x="778.84" y="1335" width="141.5" height="100" as="geometry" />
        </mxCell>
        <mxCell id="iTMEuLaaTNvBRRhwc5ZL-37" value="Connector" style="whiteSpace=wrap;html=1;aspect=fixed;rounded=0;" vertex="1" parent="1">
          <mxGeometry x="258.84000000000003" y="1205" width="90" height="90" as="geometry" />
        </mxCell>
        <mxCell id="iTMEuLaaTNvBRRhwc5ZL-38" value="Connector" style="whiteSpace=wrap;html=1;aspect=fixed;rounded=0;" vertex="1" parent="1">
          <mxGeometry x="425.84000000000003" y="1205" width="90" height="90" as="geometry" />
        </mxCell>
        <mxCell id="iTMEuLaaTNvBRRhwc5ZL-39" value="Connector" style="whiteSpace=wrap;html=1;aspect=fixed;rounded=0;" vertex="1" parent="1">
          <mxGeometry x="821.84" y="1205" width="90" height="90" as="geometry" />
        </mxCell>
        <mxCell id="iTMEuLaaTNvBRRhwc5ZL-40" style="rounded=0;orthogonalLoop=1;jettySize=auto;html=1;exitX=0.5;exitY=1;exitDx=0;exitDy=0;entryX=0.625;entryY=0.2;entryDx=0;entryDy=0;entryPerimeter=0;startArrow=classic;startFill=1;" edge="1" parent="1" source="iTMEuLaaTNvBRRhwc5ZL-37" target="iTMEuLaaTNvBRRhwc5ZL-34">
          <mxGeometry relative="1" as="geometry" />
        </mxCell>
        <mxCell id="iTMEuLaaTNvBRRhwc5ZL-41" style="rounded=0;orthogonalLoop=1;jettySize=auto;html=1;exitX=0.5;exitY=1;exitDx=0;exitDy=0;entryX=0.625;entryY=0.2;entryDx=0;entryDy=0;entryPerimeter=0;startArrow=classic;startFill=1;" edge="1" parent="1" source="iTMEuLaaTNvBRRhwc5ZL-38" target="iTMEuLaaTNvBRRhwc5ZL-35">
          <mxGeometry relative="1" as="geometry" />
        </mxCell>
        <mxCell id="iTMEuLaaTNvBRRhwc5ZL-42" style="rounded=0;orthogonalLoop=1;jettySize=auto;html=1;exitX=0.5;exitY=1;exitDx=0;exitDy=0;entryX=0.625;entryY=0.2;entryDx=0;entryDy=0;entryPerimeter=0;startArrow=classic;startFill=1;" edge="1" parent="1" source="iTMEuLaaTNvBRRhwc5ZL-39" target="iTMEuLaaTNvBRRhwc5ZL-36">
          <mxGeometry relative="1" as="geometry" />
        </mxCell>
        <mxCell id="iTMEuLaaTNvBRRhwc5ZL-43" style="rounded=0;orthogonalLoop=1;jettySize=auto;html=1;exitX=0;exitY=0;exitDx=55;exitDy=70;exitPerimeter=0;startArrow=classic;startFill=1;entryX=0.5;entryY=0;entryDx=0;entryDy=0;" edge="1" parent="1" source="iTMEuLaaTNvBRRhwc5ZL-44" target="iTMEuLaaTNvBRRhwc5ZL-13">
          <mxGeometry relative="1" as="geometry">
            <mxPoint x="1363" y="1215" as="targetPoint" />
          </mxGeometry>
        </mxCell>
        <mxCell id="iTMEuLaaTNvBRRhwc5ZL-44" value="URL(1)" style="html=1;shadow=0;dashed=0;align=center;verticalAlign=middle;shape=mxgraph.arrows2.arrow;dy=0;dx=30;notch=30;" vertex="1" parent="1">
          <mxGeometry x="1307.8400000000001" y="1105" width="140" height="70" as="geometry" />
        </mxCell>
        <mxCell id="iTMEuLaaTNvBRRhwc5ZL-45" style="rounded=0;orthogonalLoop=1;jettySize=auto;html=1;exitX=0;exitY=0;exitDx=100.875;exitDy=70;exitPerimeter=0;startArrow=classic;startFill=1;entryX=0.5;entryY=0;entryDx=0;entryDy=0;" edge="1" parent="1" source="iTMEuLaaTNvBRRhwc5ZL-46" target="iTMEuLaaTNvBRRhwc5ZL-8">
          <mxGeometry relative="1" as="geometry">
            <mxPoint x="1529" y="1205" as="targetPoint" />
          </mxGeometry>
        </mxCell>
        <mxCell id="iTMEuLaaTNvBRRhwc5ZL-46" value="URL(2)" style="html=1;shadow=0;dashed=0;align=center;verticalAlign=middle;shape=mxgraph.arrows2.arrow;dy=0;dx=30;notch=30;" vertex="1" parent="1">
          <mxGeometry x="1427.8400000000001" y="1105" width="231.75" height="70" as="geometry" />
        </mxCell>
        <mxCell id="iTMEuLaaTNvBRRhwc5ZL-47" value="URL(3)" style="html=1;shadow=0;dashed=0;align=center;verticalAlign=middle;shape=mxgraph.arrows2.arrow;dy=0;dx=30;notch=30;" vertex="1" parent="1">
          <mxGeometry x="1640.3400000000001" y="1105" width="137.5" height="70" as="geometry" />
        </mxCell>
        <mxCell id="iTMEuLaaTNvBRRhwc5ZL-48" style="rounded=0;orthogonalLoop=1;jettySize=auto;html=1;exitX=0;exitY=0;exitDx=111.99999999999999;exitDy=70;exitPerimeter=0;startArrow=classic;startFill=1;" edge="1" parent="1" source="iTMEuLaaTNvBRRhwc5ZL-49" target="iTMEuLaaTNvBRRhwc5ZL-3">
          <mxGeometry relative="1" as="geometry">
            <mxPoint x="1939" y="1205" as="targetPoint" />
          </mxGeometry>
        </mxCell>
        <mxCell id="iTMEuLaaTNvBRRhwc5ZL-49" value="URL(n)" style="html=1;shadow=0;dashed=0;align=center;verticalAlign=middle;shape=mxgraph.arrows2.arrow;dy=0;dx=30;notch=30;" vertex="1" parent="1">
          <mxGeometry x="1813.8400000000001" y="1105" width="254" height="70" as="geometry" />
        </mxCell>
        <mxCell id="iTMEuLaaTNvBRRhwc5ZL-50" value="USER" style="shape=actor;whiteSpace=wrap;html=1;verticalAlign=bottom;" vertex="1" parent="1">
          <mxGeometry x="1207.84" y="1103.75" width="67.69" height="72.5" as="geometry" />
        </mxCell>
        <mxCell id="iTMEuLaaTNvBRRhwc5ZL-51" value="" style="shape=waypoint;sketch=0;fillStyle=solid;size=6;pointerEvents=1;points=[];fillColor=none;resizable=0;rotatable=0;perimeter=centerPerimeter;snapToPoint=1;" vertex="1" parent="1">
          <mxGeometry x="1780.0900000000001" y="1130" width="20" height="20" as="geometry" />
        </mxCell>
        <mxCell id="iTMEuLaaTNvBRRhwc5ZL-52" value="" style="shape=waypoint;sketch=0;fillStyle=solid;size=6;pointerEvents=1;points=[];fillColor=none;resizable=0;rotatable=0;perimeter=centerPerimeter;snapToPoint=1;" vertex="1" parent="1">
          <mxGeometry x="1793.8400000000001" y="1130" width="20" height="20" as="geometry" />
        </mxCell>
        <mxCell id="iTMEuLaaTNvBRRhwc5ZL-53" value="" style="shape=waypoint;sketch=0;fillStyle=solid;size=6;pointerEvents=1;points=[];fillColor=none;resizable=0;rotatable=0;perimeter=centerPerimeter;snapToPoint=1;" vertex="1" parent="1">
          <mxGeometry x="1807.52" y="1130" width="20" height="20" as="geometry" />
        </mxCell>
        <mxCell id="iTMEuLaaTNvBRRhwc5ZL-54" value="Resource" style="ellipse;shape=cloud;whiteSpace=wrap;html=1;" vertex="1" parent="1">
          <mxGeometry x="1275.5300000000002" y="1350" width="141.5" height="100" as="geometry" />
        </mxCell>
        <mxCell id="iTMEuLaaTNvBRRhwc5ZL-55" value="Resource" style="ellipse;shape=cloud;whiteSpace=wrap;html=1;" vertex="1" parent="1">
          <mxGeometry x="1441.5300000000002" y="1350" width="141.5" height="100" as="geometry" />
        </mxCell>
        <mxCell id="iTMEuLaaTNvBRRhwc5ZL-56" value="Resource" style="ellipse;shape=cloud;whiteSpace=wrap;html=1;" vertex="1" parent="1">
          <mxGeometry x="1837.8400000000001" y="1350" width="141.5" height="100" as="geometry" />
        </mxCell>
        <mxCell id="iTMEuLaaTNvBRRhwc5ZL-57" value="Connector" style="whiteSpace=wrap;html=1;aspect=fixed;rounded=0;" vertex="1" parent="1">
          <mxGeometry x="1317.8400000000001" y="1235" width="90" height="90" as="geometry" />
        </mxCell>
        <mxCell id="iTMEuLaaTNvBRRhwc5ZL-58" value="Connector" style="whiteSpace=wrap;html=1;aspect=fixed;rounded=0;" vertex="1" parent="1">
          <mxGeometry x="1484.8400000000001" y="1235" width="90" height="90" as="geometry" />
        </mxCell>
        <mxCell id="iTMEuLaaTNvBRRhwc5ZL-59" value="Connector" style="whiteSpace=wrap;html=1;aspect=fixed;rounded=0;" vertex="1" parent="1">
          <mxGeometry x="1880.8400000000001" y="1235" width="90" height="90" as="geometry" />
        </mxCell>
        <mxCell id="iTMEuLaaTNvBRRhwc5ZL-60" style="rounded=0;orthogonalLoop=1;jettySize=auto;html=1;exitX=0.5;exitY=1;exitDx=0;exitDy=0;entryX=0.625;entryY=0.2;entryDx=0;entryDy=0;entryPerimeter=0;startArrow=classic;startFill=1;" edge="1" parent="1" source="iTMEuLaaTNvBRRhwc5ZL-57" target="iTMEuLaaTNvBRRhwc5ZL-54">
          <mxGeometry relative="1" as="geometry">
            <mxPoint x="1363.9675000000002" y="1410" as="targetPoint" />
          </mxGeometry>
        </mxCell>
        <mxCell id="iTMEuLaaTNvBRRhwc5ZL-61" style="rounded=0;orthogonalLoop=1;jettySize=auto;html=1;exitX=0.5;exitY=1;exitDx=0;exitDy=0;entryX=0.625;entryY=0.2;entryDx=0;entryDy=0;entryPerimeter=0;startArrow=classic;startFill=1;" edge="1" parent="1" source="iTMEuLaaTNvBRRhwc5ZL-58" target="iTMEuLaaTNvBRRhwc5ZL-55">
          <mxGeometry relative="1" as="geometry">
            <mxPoint x="1529.9675000000002" y="1410" as="targetPoint" />
          </mxGeometry>
        </mxCell>
        <mxCell id="iTMEuLaaTNvBRRhwc5ZL-62" style="rounded=0;orthogonalLoop=1;jettySize=auto;html=1;exitX=0.5;exitY=1;exitDx=0;exitDy=0;entryX=0.625;entryY=0.2;entryDx=0;entryDy=0;entryPerimeter=0;startArrow=classic;startFill=1;" edge="1" parent="1" source="iTMEuLaaTNvBRRhwc5ZL-59" target="iTMEuLaaTNvBRRhwc5ZL-56">
          <mxGeometry relative="1" as="geometry">
            <mxPoint x="1926.2775000000001" y="1410" as="targetPoint" />
          </mxGeometry>
        </mxCell>
        <mxCell id="iTMEuLaaTNvBRRhwc5ZL-63" value="" style="group" vertex="1" connectable="0" parent="1">
          <mxGeometry x="1334" y="1086.5" width="50.5" height="40" as="geometry" />
        </mxCell>
        <mxCell id="iTMEuLaaTNvBRRhwc5ZL-64" value="" style="html=1;verticalLabelPosition=bottom;align=center;labelBackgroundColor=#ffffff;verticalAlign=top;strokeWidth=2;strokeColor=#6c8ebf;shadow=0;dashed=0;shape=mxgraph.ios7.icons.clock;fillColor=#dae8fc;rotation=0;" vertex="1" parent="iTMEuLaaTNvBRRhwc5ZL-63">
          <mxGeometry x="9" y="5" width="30" height="30" as="geometry" />
        </mxCell>
        <mxCell id="iTMEuLaaTNvBRRhwc5ZL-65" value="" style="endArrow=classic;html=1;rounded=0;fillColor=#dae8fc;strokeColor=#6c8ebf;curved=0;strokeWidth=2;" edge="1" parent="iTMEuLaaTNvBRRhwc5ZL-63">
          <mxGeometry width="50" height="50" relative="1" as="geometry">
            <mxPoint y="40" as="sourcePoint" />
            <mxPoint x="48.99999999999994" y="40" as="targetPoint" />
          </mxGeometry>
        </mxCell>
        <mxCell id="iTMEuLaaTNvBRRhwc5ZL-66" value="" style="endArrow=classic;html=1;rounded=0;fillColor=#dae8fc;strokeColor=#6c8ebf;curved=0;strokeWidth=2;" edge="1" parent="iTMEuLaaTNvBRRhwc5ZL-63">
          <mxGeometry width="50" height="50" relative="1" as="geometry">
            <mxPoint x="1.5" as="sourcePoint" />
            <mxPoint x="50.5" as="targetPoint" />
          </mxGeometry>
        </mxCell>
        <mxCell id="iTMEuLaaTNvBRRhwc5ZL-67" value="" style="group" vertex="1" connectable="0" parent="1">
          <mxGeometry x="1447.84" y="1085" width="50.5" height="40" as="geometry" />
        </mxCell>
        <mxCell id="iTMEuLaaTNvBRRhwc5ZL-68" value="" style="html=1;verticalLabelPosition=bottom;align=center;labelBackgroundColor=#ffffff;verticalAlign=top;strokeWidth=2;strokeColor=#6c8ebf;shadow=0;dashed=0;shape=mxgraph.ios7.icons.clock;fillColor=#dae8fc;rotation=0;" vertex="1" parent="iTMEuLaaTNvBRRhwc5ZL-67">
          <mxGeometry x="9" y="5" width="30" height="30" as="geometry" />
        </mxCell>
        <mxCell id="iTMEuLaaTNvBRRhwc5ZL-69" value="" style="endArrow=classic;html=1;rounded=0;fillColor=#dae8fc;strokeColor=#6c8ebf;curved=0;strokeWidth=2;" edge="1" parent="iTMEuLaaTNvBRRhwc5ZL-67">
          <mxGeometry width="50" height="50" relative="1" as="geometry">
            <mxPoint y="40" as="sourcePoint" />
            <mxPoint x="48.99999999999994" y="40" as="targetPoint" />
          </mxGeometry>
        </mxCell>
        <mxCell id="iTMEuLaaTNvBRRhwc5ZL-70" value="" style="endArrow=classic;html=1;rounded=0;fillColor=#dae8fc;strokeColor=#6c8ebf;curved=0;strokeWidth=2;" edge="1" parent="iTMEuLaaTNvBRRhwc5ZL-67">
          <mxGeometry width="50" height="50" relative="1" as="geometry">
            <mxPoint x="1.5" as="sourcePoint" />
            <mxPoint x="50.5" as="targetPoint" />
          </mxGeometry>
        </mxCell>
        <mxCell id="iTMEuLaaTNvBRRhwc5ZL-71" value="" style="group" vertex="1" connectable="0" parent="1">
          <mxGeometry x="1660.49" y="1085" width="50.5" height="40" as="geometry" />
        </mxCell>
        <mxCell id="iTMEuLaaTNvBRRhwc5ZL-72" value="" style="html=1;verticalLabelPosition=bottom;align=center;labelBackgroundColor=#ffffff;verticalAlign=top;strokeWidth=2;strokeColor=#6c8ebf;shadow=0;dashed=0;shape=mxgraph.ios7.icons.clock;fillColor=#dae8fc;rotation=0;" vertex="1" parent="iTMEuLaaTNvBRRhwc5ZL-71">
          <mxGeometry x="9" y="5" width="30" height="30" as="geometry" />
        </mxCell>
        <mxCell id="iTMEuLaaTNvBRRhwc5ZL-73" value="" style="endArrow=classic;html=1;rounded=0;fillColor=#dae8fc;strokeColor=#6c8ebf;curved=0;strokeWidth=2;" edge="1" parent="iTMEuLaaTNvBRRhwc5ZL-71">
          <mxGeometry width="50" height="50" relative="1" as="geometry">
            <mxPoint y="40" as="sourcePoint" />
            <mxPoint x="48.99999999999994" y="40" as="targetPoint" />
          </mxGeometry>
        </mxCell>
        <mxCell id="iTMEuLaaTNvBRRhwc5ZL-74" value="" style="endArrow=classic;html=1;rounded=0;fillColor=#dae8fc;strokeColor=#6c8ebf;curved=0;strokeWidth=2;" edge="1" parent="iTMEuLaaTNvBRRhwc5ZL-71">
          <mxGeometry width="50" height="50" relative="1" as="geometry">
            <mxPoint x="1.5" as="sourcePoint" />
            <mxPoint x="50.5" as="targetPoint" />
          </mxGeometry>
        </mxCell>
        <mxCell id="iTMEuLaaTNvBRRhwc5ZL-75" value="" style="group" vertex="1" connectable="0" parent="1">
          <mxGeometry x="1837.84" y="1085" width="50.5" height="40" as="geometry" />
        </mxCell>
        <mxCell id="iTMEuLaaTNvBRRhwc5ZL-76" value="" style="html=1;verticalLabelPosition=bottom;align=center;labelBackgroundColor=#ffffff;verticalAlign=top;strokeWidth=2;strokeColor=#6c8ebf;shadow=0;dashed=0;shape=mxgraph.ios7.icons.clock;fillColor=#dae8fc;rotation=0;" vertex="1" parent="iTMEuLaaTNvBRRhwc5ZL-75">
          <mxGeometry x="9" y="5" width="30" height="30" as="geometry" />
        </mxCell>
        <mxCell id="iTMEuLaaTNvBRRhwc5ZL-77" value="" style="endArrow=classic;html=1;rounded=0;fillColor=#dae8fc;strokeColor=#6c8ebf;curved=0;strokeWidth=2;" edge="1" parent="iTMEuLaaTNvBRRhwc5ZL-75">
          <mxGeometry width="50" height="50" relative="1" as="geometry">
            <mxPoint y="40" as="sourcePoint" />
            <mxPoint x="48.99999999999994" y="40" as="targetPoint" />
          </mxGeometry>
        </mxCell>
        <mxCell id="iTMEuLaaTNvBRRhwc5ZL-78" value="" style="endArrow=classic;html=1;rounded=0;fillColor=#dae8fc;strokeColor=#6c8ebf;curved=0;strokeWidth=2;" edge="1" parent="iTMEuLaaTNvBRRhwc5ZL-75">
          <mxGeometry width="50" height="50" relative="1" as="geometry">
            <mxPoint x="1.5" as="sourcePoint" />
            <mxPoint x="50.5" as="targetPoint" />
          </mxGeometry>
        </mxCell>
        <mxCell id="iTMEuLaaTNvBRRhwc5ZL-79" value="&lt;h1 style=&quot;margin-top: 0px;&quot;&gt;Session&lt;/h1&gt;&lt;p&gt;&lt;/p&gt;&lt;ul&gt;&lt;li&gt;&lt;span style=&quot;background-color: initial;&quot;&gt;MainSession[type=VIEW]&lt;/span&gt;&lt;/li&gt;&lt;/ul&gt;&lt;p&gt;&lt;/p&gt;" style="text;html=1;whiteSpace=wrap;overflow=hidden;rounded=0;fontColor=#5c79a4;fontFamily=Architects Daughter;fontSource=https%3A%2F%2Ffonts.googleapis.com%2Fcss%3Ffamily%3DArchitects%2BDaughter;" vertex="1" parent="1">
          <mxGeometry x="2097" y="1075" width="180" height="85" as="geometry" />
        </mxCell>
        <mxCell id="iTMEuLaaTNvBRRhwc5ZL-80" value="&lt;h1 style=&quot;margin-top: 0px;&quot;&gt;Request&lt;/h1&gt;&lt;div&gt;&lt;ul&gt;&lt;li&gt;LocalRequest&lt;/li&gt;&lt;li&gt;RestRequest&lt;/li&gt;&lt;/ul&gt;&lt;/div&gt;&lt;div&gt;&lt;br&gt;&lt;/div&gt;" style="text;html=1;whiteSpace=wrap;overflow=hidden;rounded=0;fontColor=#456F2C;fontFamily=Architects Daughter;fontSource=https%3A%2F%2Ffonts.googleapis.com%2Fcss%3Ffamily%3DArchitects%2BDaughter;" vertex="1" parent="1">
          <mxGeometry x="2097" y="1200" width="200" height="164" as="geometry" />
        </mxCell>
        <mxCell id="iTMEuLaaTNvBRRhwc5ZL-81" value="" style="sketch=0;pointerEvents=1;shadow=0;dashed=0;html=1;strokeColor=none;fillColor=#000000;labelPosition=center;verticalLabelPosition=bottom;verticalAlign=top;outlineConnect=0;align=center;shape=mxgraph.office.concepts.web_page;" vertex="1" parent="1">
          <mxGeometry x="342" y="1110" width="28.84" height="30" as="geometry" />
        </mxCell>
        <mxCell id="iTMEuLaaTNvBRRhwc5ZL-82" value="" style="sketch=0;pointerEvents=1;shadow=0;dashed=0;html=1;strokeColor=none;fillColor=#000000;labelPosition=center;verticalLabelPosition=bottom;verticalAlign=top;outlineConnect=0;align=center;shape=mxgraph.office.concepts.web_page;" vertex="1" parent="1">
          <mxGeometry x="507" y="1110" width="28.84" height="30" as="geometry" />
        </mxCell>
        <mxCell id="iTMEuLaaTNvBRRhwc5ZL-83" value="" style="sketch=0;pointerEvents=1;shadow=0;dashed=0;html=1;strokeColor=none;fillColor=#000000;labelPosition=center;verticalLabelPosition=bottom;verticalAlign=top;outlineConnect=0;align=center;shape=mxgraph.office.concepts.web_page;" vertex="1" parent="1">
          <mxGeometry x="675" y="1110" width="28.84" height="30" as="geometry" />
        </mxCell>
        <mxCell id="iTMEuLaaTNvBRRhwc5ZL-84" value="" style="sketch=0;pointerEvents=1;shadow=0;dashed=0;html=1;strokeColor=none;fillColor=#000000;labelPosition=center;verticalLabelPosition=bottom;verticalAlign=top;outlineConnect=0;align=center;shape=mxgraph.office.concepts.web_page;" vertex="1" parent="1">
          <mxGeometry x="905" y="1110" width="28.84" height="30" as="geometry" />
        </mxCell>
        <mxCell id="iTMEuLaaTNvBRRhwc5ZL-85" value="" style="sketch=0;pointerEvents=1;shadow=0;dashed=0;html=1;strokeColor=none;fillColor=#000000;labelPosition=center;verticalLabelPosition=bottom;verticalAlign=top;outlineConnect=0;align=center;shape=mxgraph.office.concepts.web_page;" vertex="1" parent="1">
          <mxGeometry x="1400" y="1125" width="28.84" height="30" as="geometry" />
        </mxCell>
        <mxCell id="iTMEuLaaTNvBRRhwc5ZL-86" value="" style="sketch=0;pointerEvents=1;shadow=0;dashed=0;html=1;strokeColor=none;fillColor=#000000;labelPosition=center;verticalLabelPosition=bottom;verticalAlign=top;outlineConnect=0;align=center;shape=mxgraph.office.concepts.web_page;" vertex="1" parent="1">
          <mxGeometry x="1566.84" y="1125" width="28.84" height="30" as="geometry" />
        </mxCell>
        <mxCell id="iTMEuLaaTNvBRRhwc5ZL-87" value="" style="sketch=0;pointerEvents=1;shadow=0;dashed=0;html=1;strokeColor=none;fillColor=#000000;labelPosition=center;verticalLabelPosition=bottom;verticalAlign=top;outlineConnect=0;align=center;shape=mxgraph.office.concepts.web_page;" vertex="1" parent="1">
          <mxGeometry x="1731" y="1125" width="28.84" height="30" as="geometry" />
        </mxCell>
        <mxCell id="iTMEuLaaTNvBRRhwc5ZL-88" value="" style="sketch=0;pointerEvents=1;shadow=0;dashed=0;html=1;strokeColor=none;fillColor=#000000;labelPosition=center;verticalLabelPosition=bottom;verticalAlign=top;outlineConnect=0;align=center;shape=mxgraph.office.concepts.web_page;" vertex="1" parent="1">
          <mxGeometry x="1963.84" y="1125" width="28.84" height="30" as="geometry" />
        </mxCell>
        <mxCell id="iTMEuLaaTNvBRRhwc5ZL-90" value="Service" style="ellipse;whiteSpace=wrap;html=1;rounded=0;" vertex="1" parent="1">
          <mxGeometry x="575.0500000000001" y="1202.5" width="120" height="80" as="geometry" />
        </mxCell>
        <mxCell id="iTMEuLaaTNvBRRhwc5ZL-91" style="rounded=0;orthogonalLoop=1;jettySize=auto;html=1;entryX=0;entryY=0;entryDx=53.75;entryDy=70;entryPerimeter=0;startArrow=classic;startFill=1;" edge="1" parent="1" source="iTMEuLaaTNvBRRhwc5ZL-90" target="iTMEuLaaTNvBRRhwc5ZL-27">
          <mxGeometry relative="1" as="geometry" />
        </mxCell>
        <mxCell id="iTMEuLaaTNvBRRhwc5ZL-92" value="Service" style="ellipse;whiteSpace=wrap;html=1;rounded=0;" vertex="1" parent="1">
          <mxGeometry x="1657.8400000000001" y="1227.5" width="120" height="80" as="geometry" />
        </mxCell>
        <mxCell id="iTMEuLaaTNvBRRhwc5ZL-93" value="" style="group" vertex="1" connectable="0" parent="1">
          <mxGeometry x="1700.35" y="1205" width="39.190000000000055" height="50" as="geometry" />
        </mxCell>
        <mxCell id="iTMEuLaaTNvBRRhwc5ZL-94" value="" style="html=1;verticalLabelPosition=bottom;align=center;labelBackgroundColor=#ffffff;verticalAlign=top;strokeWidth=2;strokeColor=#82b366;shadow=0;dashed=0;shape=mxgraph.ios7.icons.clock;fillColor=#d5e8d4;" vertex="1" parent="iTMEuLaaTNvBRRhwc5ZL-93">
          <mxGeometry x="4.940000000000055" y="10" width="30" height="30" as="geometry" />
        </mxCell>
        <mxCell id="iTMEuLaaTNvBRRhwc5ZL-95" value="" style="endArrow=classic;html=1;rounded=0;fillColor=#d5e8d4;strokeColor=#82b366;strokeWidth=2;" edge="1" parent="iTMEuLaaTNvBRRhwc5ZL-93">
          <mxGeometry width="50" height="50" relative="1" as="geometry">
            <mxPoint x="0.19000000000005457" as="sourcePoint" />
            <mxPoint y="50" as="targetPoint" />
          </mxGeometry>
        </mxCell>
        <mxCell id="iTMEuLaaTNvBRRhwc5ZL-96" value="" style="endArrow=classic;html=1;rounded=0;fillColor=#d5e8d4;strokeColor=#82b366;curved=0;strokeWidth=2;" edge="1" parent="iTMEuLaaTNvBRRhwc5ZL-93">
          <mxGeometry width="50" height="50" relative="1" as="geometry">
            <mxPoint x="39.190000000000055" y="49" as="sourcePoint" />
            <mxPoint x="39.190000000000055" as="targetPoint" />
          </mxGeometry>
        </mxCell>
        <mxCell id="iTMEuLaaTNvBRRhwc5ZL-97" style="rounded=0;orthogonalLoop=1;jettySize=auto;html=1;entryX=0.586;entryY=0.986;entryDx=0;entryDy=0;entryPerimeter=0;startArrow=classic;startFill=1;" edge="1" parent="1" source="iTMEuLaaTNvBRRhwc5ZL-2" target="iTMEuLaaTNvBRRhwc5ZL-47">
          <mxGeometry relative="1" as="geometry" />
        </mxCell>
        <mxCell id="iTMEuLaaTNvBRRhwc5ZL-14" value="" style="group" vertex="1" connectable="0" parent="1">
          <mxGeometry x="1345.31" y="1210.5" width="39.190000000000055" height="50" as="geometry" />
        </mxCell>
        <mxCell id="iTMEuLaaTNvBRRhwc5ZL-15" value="" style="html=1;verticalLabelPosition=bottom;align=center;labelBackgroundColor=#ffffff;verticalAlign=top;strokeWidth=2;strokeColor=#82b366;shadow=0;dashed=0;shape=mxgraph.ios7.icons.clock;fillColor=#d5e8d4;" vertex="1" parent="iTMEuLaaTNvBRRhwc5ZL-14">
          <mxGeometry x="4.940000000000055" y="10" width="30" height="30" as="geometry" />
        </mxCell>
        <mxCell id="iTMEuLaaTNvBRRhwc5ZL-16" value="" style="endArrow=classic;html=1;rounded=0;fillColor=#d5e8d4;strokeColor=#82b366;strokeWidth=2;" edge="1" parent="iTMEuLaaTNvBRRhwc5ZL-14">
          <mxGeometry width="50" height="50" relative="1" as="geometry">
            <mxPoint x="0.19000000000005457" as="sourcePoint" />
            <mxPoint y="50" as="targetPoint" />
          </mxGeometry>
        </mxCell>
        <mxCell id="iTMEuLaaTNvBRRhwc5ZL-17" value="" style="endArrow=classic;html=1;rounded=0;fillColor=#d5e8d4;strokeColor=#82b366;curved=0;strokeWidth=2;" edge="1" parent="iTMEuLaaTNvBRRhwc5ZL-14">
          <mxGeometry width="50" height="50" relative="1" as="geometry">
            <mxPoint x="39.190000000000055" y="49" as="sourcePoint" />
            <mxPoint x="39.190000000000055" as="targetPoint" />
          </mxGeometry>
        </mxCell>
        <mxCell id="iTMEuLaaTNvBRRhwc5ZL-9" value="" style="group" vertex="1" connectable="0" parent="1">
          <mxGeometry x="1510.25" y="1210.5" width="39.190000000000055" height="50" as="geometry" />
        </mxCell>
        <mxCell id="iTMEuLaaTNvBRRhwc5ZL-10" value="" style="html=1;verticalLabelPosition=bottom;align=center;labelBackgroundColor=#ffffff;verticalAlign=top;strokeWidth=2;strokeColor=#82b366;shadow=0;dashed=0;shape=mxgraph.ios7.icons.clock;fillColor=#d5e8d4;" vertex="1" parent="iTMEuLaaTNvBRRhwc5ZL-9">
          <mxGeometry x="4.940000000000055" y="10" width="30" height="30" as="geometry" />
        </mxCell>
        <mxCell id="iTMEuLaaTNvBRRhwc5ZL-11" value="" style="endArrow=classic;html=1;rounded=0;fillColor=#d5e8d4;strokeColor=#82b366;strokeWidth=2;" edge="1" parent="iTMEuLaaTNvBRRhwc5ZL-9">
          <mxGeometry width="50" height="50" relative="1" as="geometry">
            <mxPoint x="0.19000000000005457" as="sourcePoint" />
            <mxPoint y="50" as="targetPoint" />
          </mxGeometry>
        </mxCell>
        <mxCell id="iTMEuLaaTNvBRRhwc5ZL-12" value="" style="endArrow=classic;html=1;rounded=0;fillColor=#d5e8d4;strokeColor=#82b366;curved=0;strokeWidth=2;" edge="1" parent="iTMEuLaaTNvBRRhwc5ZL-9">
          <mxGeometry width="50" height="50" relative="1" as="geometry">
            <mxPoint x="39.190000000000055" y="49" as="sourcePoint" />
            <mxPoint x="39.190000000000055" as="targetPoint" />
          </mxGeometry>
        </mxCell>
        <mxCell id="iTMEuLaaTNvBRRhwc5ZL-4" value="" style="group" vertex="1" connectable="0" parent="1">
          <mxGeometry x="1908.83" y="1210.5" width="39.190000000000055" height="50" as="geometry" />
        </mxCell>
        <mxCell id="iTMEuLaaTNvBRRhwc5ZL-5" value="" style="html=1;verticalLabelPosition=bottom;align=center;labelBackgroundColor=#ffffff;verticalAlign=top;strokeWidth=2;strokeColor=#82b366;shadow=0;dashed=0;shape=mxgraph.ios7.icons.clock;fillColor=#d5e8d4;" vertex="1" parent="iTMEuLaaTNvBRRhwc5ZL-4">
          <mxGeometry x="4.940000000000055" y="10" width="30" height="30" as="geometry" />
        </mxCell>
        <mxCell id="iTMEuLaaTNvBRRhwc5ZL-6" value="" style="endArrow=classic;html=1;rounded=0;fillColor=#d5e8d4;strokeColor=#82b366;strokeWidth=2;" edge="1" parent="iTMEuLaaTNvBRRhwc5ZL-4">
          <mxGeometry width="50" height="50" relative="1" as="geometry">
            <mxPoint x="0.19000000000005457" as="sourcePoint" />
            <mxPoint y="50" as="targetPoint" />
          </mxGeometry>
        </mxCell>
        <mxCell id="iTMEuLaaTNvBRRhwc5ZL-7" value="" style="endArrow=classic;html=1;rounded=0;fillColor=#d5e8d4;strokeColor=#82b366;curved=0;strokeWidth=2;" edge="1" parent="iTMEuLaaTNvBRRhwc5ZL-4">
          <mxGeometry width="50" height="50" relative="1" as="geometry">
            <mxPoint x="39.190000000000055" y="49" as="sourcePoint" />
            <mxPoint x="39.190000000000055" as="targetPoint" />
          </mxGeometry>
        </mxCell>
        <mxCell id="-cXK_s8CL4nyw90gc9Nc-1" value="&lt;font style=&quot;font-size: 12px;&quot;&gt;INSPECT &lt;/font&gt;&lt;font style=&quot;font-size: 8px;&quot;&gt;inside&lt;/font&gt;" style="text;strokeColor=none;fillColor=none;html=1;fontSize=24;fontStyle=1;verticalAlign=middle;align=center;fontColor=default;" vertex="1" parent="1">
          <mxGeometry x="1994.8400000000001" y="1030" width="90" height="40" as="geometry" />
        </mxCell>
      </root>
    </mxGraphModel>
  </diagram>
  <diagram name="collector-3" id="uigpwwjzt3T1p5udmavG">
    <mxGraphModel dx="2265" dy="1638" grid="1" gridSize="10" guides="1" tooltips="1" connect="1" arrows="1" fold="1" page="1" pageScale="1" pageWidth="1169" pageHeight="827" background="none" math="0" shadow="0">
      <root>
        <mxCell id="0" />
        <mxCell id="1" parent="0" />
        <mxCell id="85PkTE7ZiY2D7SkHWtGL-27" value="SERVER" style="rounded=0;whiteSpace=wrap;html=1;verticalAlign=bottom;fontSize=16;fontStyle=3" vertex="1" parent="1">
          <mxGeometry x="1229" y="-669" width="784.19" height="440" as="geometry" />
        </mxCell>
        <mxCell id="85PkTE7ZiY2D7SkHWtGL-62" value="" style="rounded=1;whiteSpace=wrap;html=1;fillColor=#d5e8d4;strokeColor=#82b366;" vertex="1" parent="1">
          <mxGeometry x="1820.66" y="-370" width="118.84" height="71" as="geometry" />
        </mxCell>
        <mxCell id="85PkTE7ZiY2D7SkHWtGL-56" value="" style="rounded=1;whiteSpace=wrap;html=1;fillColor=#d5e8d4;strokeColor=#82b366;" vertex="1" parent="1">
          <mxGeometry x="1362.65" y="-370" width="118.84" height="71" as="geometry" />
        </mxCell>
        <mxCell id="85PkTE7ZiY2D7SkHWtGL-51" value="" style="rounded=1;whiteSpace=wrap;html=1;fillColor=#d5e8d4;strokeColor=#82b366;" vertex="1" parent="1">
          <mxGeometry x="1584" y="-470" width="140" height="73" as="geometry" />
        </mxCell>
        <mxCell id="85PkTE7ZiY2D7SkHWtGL-44" value="" style="rounded=1;whiteSpace=wrap;html=1;fillColor=#dae8fc;strokeColor=#6c8ebf;" vertex="1" parent="1">
          <mxGeometry x="1260" y="-630" width="674.44" height="74" as="geometry" />
        </mxCell>
        <mxCell id="85PkTE7ZiY2D7SkHWtGL-1" value="SERVER" style="rounded=0;whiteSpace=wrap;html=1;verticalAlign=bottom;fontSize=16;fontStyle=3" vertex="1" parent="1">
          <mxGeometry x="192" y="-659" width="784.19" height="390" as="geometry" />
        </mxCell>
        <mxCell id="85PkTE7ZiY2D7SkHWtGL-2" value="Startup" style="html=1;shadow=0;dashed=0;align=center;verticalAlign=middle;shape=mxgraph.arrows2.arrow;dy=0;dx=30;notch=30;" vertex="1" parent="1">
          <mxGeometry x="219.18999999999997" y="-609" width="708.16" height="70" as="geometry" />
        </mxCell>
        <mxCell id="85PkTE7ZiY2D7SkHWtGL-4" value="Resource" style="ellipse;shape=cloud;whiteSpace=wrap;html=1;" vertex="1" parent="1">
          <mxGeometry x="296.35" y="-269" width="141.5" height="100" as="geometry" />
        </mxCell>
        <mxCell id="85PkTE7ZiY2D7SkHWtGL-6" value="Resource" style="ellipse;shape=cloud;whiteSpace=wrap;html=1;" vertex="1" parent="1">
          <mxGeometry x="753.94" y="-269" width="141.5" height="100" as="geometry" />
        </mxCell>
        <mxCell id="85PkTE7ZiY2D7SkHWtGL-7" value="Connector" style="whiteSpace=wrap;html=1;aspect=fixed;rounded=0;" vertex="1" parent="1">
          <mxGeometry x="340.07000000000005" y="-380" width="90" height="90" as="geometry" />
        </mxCell>
        <mxCell id="85PkTE7ZiY2D7SkHWtGL-9" value="Connector" style="whiteSpace=wrap;html=1;aspect=fixed;rounded=0;" vertex="1" parent="1">
          <mxGeometry x="797.5000000000001" y="-380" width="90" height="90" as="geometry" />
        </mxCell>
        <mxCell id="85PkTE7ZiY2D7SkHWtGL-10" style="rounded=0;orthogonalLoop=1;jettySize=auto;html=1;exitX=0.5;exitY=1;exitDx=0;exitDy=0;entryX=0.625;entryY=0.2;entryDx=0;entryDy=0;entryPerimeter=0;startArrow=classic;startFill=1;" edge="1" parent="1" source="85PkTE7ZiY2D7SkHWtGL-7" target="85PkTE7ZiY2D7SkHWtGL-4">
          <mxGeometry relative="1" as="geometry" />
        </mxCell>
        <mxCell id="85PkTE7ZiY2D7SkHWtGL-11" style="rounded=0;orthogonalLoop=1;jettySize=auto;html=1;exitX=0.5;exitY=1;exitDx=0;exitDy=0;entryX=0.625;entryY=0.2;entryDx=0;entryDy=0;entryPerimeter=0;startArrow=classic;startFill=1;" edge="1" parent="1" target="85PkTE7ZiY2D7SkHWtGL-5">
          <mxGeometry relative="1" as="geometry">
            <mxPoint x="518.31" y="1889" as="sourcePoint" />
          </mxGeometry>
        </mxCell>
        <mxCell id="85PkTE7ZiY2D7SkHWtGL-12" style="rounded=0;orthogonalLoop=1;jettySize=auto;html=1;exitX=0.5;exitY=1;exitDx=0;exitDy=0;entryX=0.625;entryY=0.2;entryDx=0;entryDy=0;entryPerimeter=0;startArrow=classic;startFill=1;" edge="1" parent="1" source="85PkTE7ZiY2D7SkHWtGL-9" target="85PkTE7ZiY2D7SkHWtGL-6">
          <mxGeometry relative="1" as="geometry" />
        </mxCell>
        <mxCell id="85PkTE7ZiY2D7SkHWtGL-16" value="" style="shape=image;html=1;verticalAlign=top;verticalLabelPosition=bottom;labelBackgroundColor=#ffffff;imageAspect=0;aspect=fixed;image=https://cdn3.iconfinder.com/data/icons/user-interface-set-10/128/A-14-128.png" vertex="1" parent="1">
          <mxGeometry x="483.35" y="-603" width="58" height="58" as="geometry" />
        </mxCell>
        <mxCell id="85PkTE7ZiY2D7SkHWtGL-24" style="rounded=0;orthogonalLoop=1;jettySize=auto;html=1;entryX=0.239;entryY=0.995;entryDx=0;entryDy=0;entryPerimeter=0;startArrow=classic;startFill=1;" edge="1" parent="1" source="85PkTE7ZiY2D7SkHWtGL-19" target="85PkTE7ZiY2D7SkHWtGL-2">
          <mxGeometry relative="1" as="geometry" />
        </mxCell>
        <mxCell id="85PkTE7ZiY2D7SkHWtGL-19" value="Service" style="ellipse;whiteSpace=wrap;html=1;rounded=0;" vertex="1" parent="1">
          <mxGeometry x="326.19000000000005" y="-499" width="120" height="80" as="geometry" />
        </mxCell>
        <mxCell id="85PkTE7ZiY2D7SkHWtGL-20" value="Service" style="ellipse;whiteSpace=wrap;html=1;rounded=0;" vertex="1" parent="1">
          <mxGeometry x="556.1900000000002" y="-499" width="120" height="80" as="geometry" />
        </mxCell>
        <mxCell id="85PkTE7ZiY2D7SkHWtGL-21" value="Service" style="ellipse;whiteSpace=wrap;html=1;rounded=0;" vertex="1" parent="1">
          <mxGeometry x="782.5000000000001" y="-499" width="120" height="80" as="geometry" />
        </mxCell>
        <mxCell id="85PkTE7ZiY2D7SkHWtGL-22" style="rounded=0;orthogonalLoop=1;jettySize=auto;html=1;exitX=0.5;exitY=1;exitDx=0;exitDy=0;startArrow=classic;startFill=1;entryX=0.5;entryY=0;entryDx=0;entryDy=0;" edge="1" parent="1" source="85PkTE7ZiY2D7SkHWtGL-19" target="85PkTE7ZiY2D7SkHWtGL-7">
          <mxGeometry relative="1" as="geometry">
            <mxPoint x="396.23" y="-270" as="sourcePoint" />
            <mxPoint x="395.23" y="-210" as="targetPoint" />
          </mxGeometry>
        </mxCell>
        <mxCell id="85PkTE7ZiY2D7SkHWtGL-23" style="rounded=0;orthogonalLoop=1;jettySize=auto;html=1;entryX=0.5;entryY=0;entryDx=0;entryDy=0;startArrow=classic;startFill=1;exitX=0.5;exitY=1;exitDx=0;exitDy=0;" edge="1" parent="1" source="85PkTE7ZiY2D7SkHWtGL-21" target="85PkTE7ZiY2D7SkHWtGL-9">
          <mxGeometry relative="1" as="geometry">
            <mxPoint x="852.5400000000001" y="-280" as="sourcePoint" />
            <mxPoint x="852.5400000000001" y="-220" as="targetPoint" />
          </mxGeometry>
        </mxCell>
        <mxCell id="85PkTE7ZiY2D7SkHWtGL-25" style="rounded=0;orthogonalLoop=1;jettySize=auto;html=1;entryX=0.239;entryY=0.995;entryDx=0;entryDy=0;entryPerimeter=0;startArrow=classic;startFill=1;exitX=0.5;exitY=0;exitDx=0;exitDy=0;" edge="1" parent="1" source="85PkTE7ZiY2D7SkHWtGL-20">
          <mxGeometry relative="1" as="geometry">
            <mxPoint x="615.69" y="-499" as="sourcePoint" />
            <mxPoint x="616.69" y="-539" as="targetPoint" />
          </mxGeometry>
        </mxCell>
        <mxCell id="85PkTE7ZiY2D7SkHWtGL-26" style="rounded=0;orthogonalLoop=1;jettySize=auto;html=1;startArrow=classic;startFill=1;exitX=0.5;exitY=0;exitDx=0;exitDy=0;" edge="1" parent="1" source="85PkTE7ZiY2D7SkHWtGL-21">
          <mxGeometry relative="1" as="geometry">
            <mxPoint x="626.35" y="-489" as="sourcePoint" />
            <mxPoint x="842.35" y="-540" as="targetPoint" />
          </mxGeometry>
        </mxCell>
        <mxCell id="85PkTE7ZiY2D7SkHWtGL-28" value="Startup" style="html=1;shadow=0;dashed=0;align=center;verticalAlign=middle;shape=mxgraph.arrows2.arrow;dy=0;dx=30;notch=30;" vertex="1" parent="1">
          <mxGeometry x="1256.19" y="-599" width="708.16" height="70" as="geometry" />
        </mxCell>
        <mxCell id="85PkTE7ZiY2D7SkHWtGL-29" value="Resource" style="ellipse;shape=cloud;whiteSpace=wrap;html=1;" vertex="1" parent="1">
          <mxGeometry x="1333.35" y="-229" width="141.5" height="100" as="geometry" />
        </mxCell>
        <mxCell id="85PkTE7ZiY2D7SkHWtGL-30" value="Resource" style="ellipse;shape=cloud;whiteSpace=wrap;html=1;" vertex="1" parent="1">
          <mxGeometry x="1790.94" y="-229" width="141.5" height="100" as="geometry" />
        </mxCell>
        <mxCell id="85PkTE7ZiY2D7SkHWtGL-31" value="Connector" style="whiteSpace=wrap;html=1;aspect=fixed;rounded=0;" vertex="1" parent="1">
          <mxGeometry x="1377.0700000000002" y="-340" width="90" height="90" as="geometry" />
        </mxCell>
        <mxCell id="85PkTE7ZiY2D7SkHWtGL-32" value="Connector" style="whiteSpace=wrap;html=1;aspect=fixed;rounded=0;" vertex="1" parent="1">
          <mxGeometry x="1834.5" y="-340" width="90" height="90" as="geometry" />
        </mxCell>
        <mxCell id="85PkTE7ZiY2D7SkHWtGL-33" style="rounded=0;orthogonalLoop=1;jettySize=auto;html=1;exitX=0.5;exitY=1;exitDx=0;exitDy=0;entryX=0.625;entryY=0.2;entryDx=0;entryDy=0;entryPerimeter=0;startArrow=classic;startFill=1;" edge="1" parent="1" source="85PkTE7ZiY2D7SkHWtGL-31" target="85PkTE7ZiY2D7SkHWtGL-29">
          <mxGeometry relative="1" as="geometry" />
        </mxCell>
        <mxCell id="85PkTE7ZiY2D7SkHWtGL-34" style="rounded=0;orthogonalLoop=1;jettySize=auto;html=1;exitX=0.5;exitY=1;exitDx=0;exitDy=0;entryX=0.625;entryY=0.2;entryDx=0;entryDy=0;entryPerimeter=0;startArrow=classic;startFill=1;" edge="1" parent="1" source="85PkTE7ZiY2D7SkHWtGL-32" target="85PkTE7ZiY2D7SkHWtGL-30">
          <mxGeometry relative="1" as="geometry" />
        </mxCell>
        <mxCell id="85PkTE7ZiY2D7SkHWtGL-35" value="" style="shape=image;html=1;verticalAlign=top;verticalLabelPosition=bottom;labelBackgroundColor=#ffffff;imageAspect=0;aspect=fixed;image=https://cdn3.iconfinder.com/data/icons/user-interface-set-10/128/A-14-128.png" vertex="1" parent="1">
          <mxGeometry x="1520.35" y="-593" width="58" height="58" as="geometry" />
        </mxCell>
        <mxCell id="85PkTE7ZiY2D7SkHWtGL-36" style="rounded=0;orthogonalLoop=1;jettySize=auto;html=1;entryX=0.239;entryY=0.995;entryDx=0;entryDy=0;entryPerimeter=0;startArrow=classic;startFill=1;" edge="1" parent="1" source="85PkTE7ZiY2D7SkHWtGL-37" target="85PkTE7ZiY2D7SkHWtGL-28">
          <mxGeometry relative="1" as="geometry" />
        </mxCell>
        <mxCell id="85PkTE7ZiY2D7SkHWtGL-37" value="Service" style="ellipse;whiteSpace=wrap;html=1;rounded=0;" vertex="1" parent="1">
          <mxGeometry x="1364.03" y="-497.5" width="120" height="80" as="geometry" />
        </mxCell>
        <mxCell id="85PkTE7ZiY2D7SkHWtGL-38" value="Service" style="ellipse;whiteSpace=wrap;html=1;rounded=0;" vertex="1" parent="1">
          <mxGeometry x="1594.75" y="-439" width="120" height="80" as="geometry" />
        </mxCell>
        <mxCell id="85PkTE7ZiY2D7SkHWtGL-39" value="Service" style="ellipse;whiteSpace=wrap;html=1;rounded=0;" vertex="1" parent="1">
          <mxGeometry x="1819.5" y="-497.5" width="120" height="80" as="geometry" />
        </mxCell>
        <mxCell id="85PkTE7ZiY2D7SkHWtGL-40" style="rounded=0;orthogonalLoop=1;jettySize=auto;html=1;exitX=0.5;exitY=1;exitDx=0;exitDy=0;startArrow=classic;startFill=1;entryX=0.5;entryY=0;entryDx=0;entryDy=0;" edge="1" parent="1" source="85PkTE7ZiY2D7SkHWtGL-37" target="85PkTE7ZiY2D7SkHWtGL-56">
          <mxGeometry relative="1" as="geometry">
            <mxPoint x="1433.23" y="-260" as="sourcePoint" />
            <mxPoint x="1422" y="-389" as="targetPoint" />
          </mxGeometry>
        </mxCell>
        <mxCell id="85PkTE7ZiY2D7SkHWtGL-41" style="rounded=0;orthogonalLoop=1;jettySize=auto;html=1;startArrow=classic;startFill=1;exitX=0.5;exitY=1;exitDx=0;exitDy=0;entryX=0.5;entryY=0;entryDx=0;entryDy=0;" edge="1" parent="1" source="85PkTE7ZiY2D7SkHWtGL-39" target="85PkTE7ZiY2D7SkHWtGL-62">
          <mxGeometry relative="1" as="geometry">
            <mxPoint x="1889.54" y="-270" as="sourcePoint" />
            <mxPoint x="1880" y="-389" as="targetPoint" />
          </mxGeometry>
        </mxCell>
        <mxCell id="85PkTE7ZiY2D7SkHWtGL-42" style="rounded=0;orthogonalLoop=1;jettySize=auto;html=1;entryX=0.239;entryY=0.995;entryDx=0;entryDy=0;entryPerimeter=0;startArrow=classic;startFill=1;exitX=0.5;exitY=0;exitDx=0;exitDy=0;" edge="1" parent="1" source="85PkTE7ZiY2D7SkHWtGL-51">
          <mxGeometry relative="1" as="geometry">
            <mxPoint x="1654" y="-489" as="sourcePoint" />
            <mxPoint x="1653.69" y="-529" as="targetPoint" />
          </mxGeometry>
        </mxCell>
        <mxCell id="85PkTE7ZiY2D7SkHWtGL-43" style="rounded=0;orthogonalLoop=1;jettySize=auto;html=1;startArrow=classic;startFill=1;exitX=0.5;exitY=0;exitDx=0;exitDy=0;" edge="1" parent="1" source="85PkTE7ZiY2D7SkHWtGL-39">
          <mxGeometry relative="1" as="geometry">
            <mxPoint x="1663.35" y="-479" as="sourcePoint" />
            <mxPoint x="1879.35" y="-530" as="targetPoint" />
          </mxGeometry>
        </mxCell>
        <mxCell id="85PkTE7ZiY2D7SkHWtGL-45" value="" style="group" vertex="1" connectable="0" parent="1">
          <mxGeometry x="1595.85" y="-620" width="50.5" height="40" as="geometry" />
        </mxCell>
        <mxCell id="85PkTE7ZiY2D7SkHWtGL-46" value="" style="html=1;verticalLabelPosition=bottom;align=center;labelBackgroundColor=#ffffff;verticalAlign=top;strokeWidth=2;strokeColor=#6c8ebf;shadow=0;dashed=0;shape=mxgraph.ios7.icons.clock;fillColor=#dae8fc;rotation=0;" vertex="1" parent="85PkTE7ZiY2D7SkHWtGL-45">
          <mxGeometry x="9" y="5" width="30" height="30" as="geometry" />
        </mxCell>
        <mxCell id="85PkTE7ZiY2D7SkHWtGL-47" value="" style="endArrow=classic;html=1;rounded=0;fillColor=#dae8fc;strokeColor=#6c8ebf;curved=0;strokeWidth=2;" edge="1" parent="85PkTE7ZiY2D7SkHWtGL-45">
          <mxGeometry width="50" height="50" relative="1" as="geometry">
            <mxPoint y="40" as="sourcePoint" />
            <mxPoint x="48.99999999999994" y="40" as="targetPoint" />
          </mxGeometry>
        </mxCell>
        <mxCell id="85PkTE7ZiY2D7SkHWtGL-48" value="" style="endArrow=classic;html=1;rounded=0;fillColor=#dae8fc;strokeColor=#6c8ebf;curved=0;strokeWidth=2;" edge="1" parent="85PkTE7ZiY2D7SkHWtGL-45">
          <mxGeometry width="50" height="50" relative="1" as="geometry">
            <mxPoint x="1.5" as="sourcePoint" />
            <mxPoint x="50.5" as="targetPoint" />
          </mxGeometry>
        </mxCell>
        <mxCell id="85PkTE7ZiY2D7SkHWtGL-49" value="&lt;h1 style=&quot;margin-top: 0px;&quot;&gt;Session&lt;/h1&gt;&lt;p&gt;&lt;/p&gt;&lt;ul&gt;&lt;li&gt;&lt;span style=&quot;background-color: initial;&quot;&gt;MainSession[type=STARTUP]&lt;/span&gt;&lt;/li&gt;&lt;/ul&gt;&lt;p&gt;&lt;/p&gt;" style="text;html=1;whiteSpace=wrap;overflow=hidden;rounded=0;fontColor=#5c79a4;fontFamily=Architects Daughter;fontSource=https%3A%2F%2Ffonts.googleapis.com%2Fcss%3Ffamily%3DArchitects%2BDaughter;" vertex="1" parent="1">
          <mxGeometry x="2038" y="-630" width="240" height="120" as="geometry" />
        </mxCell>
        <mxCell id="85PkTE7ZiY2D7SkHWtGL-50" value="&lt;h1 style=&quot;margin-top: 0px;&quot;&gt;Request&lt;/h1&gt;&lt;div&gt;&lt;ul&gt;&lt;li&gt;LocalRequest&lt;/li&gt;&lt;li&gt;DatabaseRequest&lt;/li&gt;&lt;li&gt;RestRequest&lt;/li&gt;&lt;li&gt;FtpRequest&lt;/li&gt;&lt;li&gt;MailRequest&lt;/li&gt;&lt;li&gt;LdapRequest&lt;/li&gt;&lt;/ul&gt;&lt;/div&gt;&lt;div&gt;&lt;br&gt;&lt;/div&gt;" style="text;html=1;whiteSpace=wrap;overflow=hidden;rounded=0;fontColor=#456F2C;fontFamily=Architects Daughter;fontSource=https%3A%2F%2Ffonts.googleapis.com%2Fcss%3Ffamily%3DArchitects%2BDaughter;" vertex="1" parent="1">
          <mxGeometry x="2038" y="-470" width="200" height="164" as="geometry" />
        </mxCell>
        <mxCell id="85PkTE7ZiY2D7SkHWtGL-52" value="" style="group" vertex="1" connectable="0" parent="1">
          <mxGeometry x="1635.15" y="-463" width="39.190000000000055" height="50" as="geometry" />
        </mxCell>
        <mxCell id="85PkTE7ZiY2D7SkHWtGL-53" value="" style="html=1;verticalLabelPosition=bottom;align=center;labelBackgroundColor=#ffffff;verticalAlign=top;strokeWidth=2;strokeColor=#82b366;shadow=0;dashed=0;shape=mxgraph.ios7.icons.clock;fillColor=#d5e8d4;" vertex="1" parent="85PkTE7ZiY2D7SkHWtGL-52">
          <mxGeometry x="4.940000000000055" y="10" width="30" height="30" as="geometry" />
        </mxCell>
        <mxCell id="85PkTE7ZiY2D7SkHWtGL-54" value="" style="endArrow=classic;html=1;rounded=0;fillColor=#d5e8d4;strokeColor=#82b366;strokeWidth=2;" edge="1" parent="85PkTE7ZiY2D7SkHWtGL-52">
          <mxGeometry width="50" height="50" relative="1" as="geometry">
            <mxPoint x="0.19000000000005457" as="sourcePoint" />
            <mxPoint y="50" as="targetPoint" />
          </mxGeometry>
        </mxCell>
        <mxCell id="85PkTE7ZiY2D7SkHWtGL-55" value="" style="endArrow=classic;html=1;rounded=0;fillColor=#d5e8d4;strokeColor=#82b366;curved=0;strokeWidth=2;" edge="1" parent="85PkTE7ZiY2D7SkHWtGL-52">
          <mxGeometry width="50" height="50" relative="1" as="geometry">
            <mxPoint x="39.190000000000055" y="49" as="sourcePoint" />
            <mxPoint x="39.190000000000055" as="targetPoint" />
          </mxGeometry>
        </mxCell>
        <mxCell id="85PkTE7ZiY2D7SkHWtGL-57" value="" style="group" vertex="1" connectable="0" parent="1">
          <mxGeometry x="1400" y="-365" width="39.190000000000055" height="50" as="geometry" />
        </mxCell>
        <mxCell id="85PkTE7ZiY2D7SkHWtGL-58" value="" style="html=1;verticalLabelPosition=bottom;align=center;labelBackgroundColor=#ffffff;verticalAlign=top;strokeWidth=2;strokeColor=#82b366;shadow=0;dashed=0;shape=mxgraph.ios7.icons.clock;fillColor=#d5e8d4;" vertex="1" parent="85PkTE7ZiY2D7SkHWtGL-57">
          <mxGeometry x="4.940000000000055" y="10" width="30" height="30" as="geometry" />
        </mxCell>
        <mxCell id="85PkTE7ZiY2D7SkHWtGL-59" value="" style="endArrow=classic;html=1;rounded=0;fillColor=#d5e8d4;strokeColor=#82b366;strokeWidth=2;" edge="1" parent="85PkTE7ZiY2D7SkHWtGL-57">
          <mxGeometry width="50" height="50" relative="1" as="geometry">
            <mxPoint x="0.19000000000005457" as="sourcePoint" />
            <mxPoint y="50" as="targetPoint" />
          </mxGeometry>
        </mxCell>
        <mxCell id="85PkTE7ZiY2D7SkHWtGL-60" value="" style="endArrow=classic;html=1;rounded=0;fillColor=#d5e8d4;strokeColor=#82b366;curved=0;strokeWidth=2;" edge="1" parent="85PkTE7ZiY2D7SkHWtGL-57">
          <mxGeometry width="50" height="50" relative="1" as="geometry">
            <mxPoint x="39.190000000000055" y="49" as="sourcePoint" />
            <mxPoint x="39.190000000000055" as="targetPoint" />
          </mxGeometry>
        </mxCell>
        <mxCell id="85PkTE7ZiY2D7SkHWtGL-63" value="" style="group" vertex="1" connectable="0" parent="1">
          <mxGeometry x="1859.91" y="-366" width="39.190000000000055" height="50" as="geometry" />
        </mxCell>
        <mxCell id="85PkTE7ZiY2D7SkHWtGL-64" value="" style="html=1;verticalLabelPosition=bottom;align=center;labelBackgroundColor=#ffffff;verticalAlign=top;strokeWidth=2;strokeColor=#82b366;shadow=0;dashed=0;shape=mxgraph.ios7.icons.clock;fillColor=#d5e8d4;" vertex="1" parent="85PkTE7ZiY2D7SkHWtGL-63">
          <mxGeometry x="4.940000000000055" y="10" width="30" height="30" as="geometry" />
        </mxCell>
        <mxCell id="85PkTE7ZiY2D7SkHWtGL-65" value="" style="endArrow=classic;html=1;rounded=0;fillColor=#d5e8d4;strokeColor=#82b366;strokeWidth=2;" edge="1" parent="85PkTE7ZiY2D7SkHWtGL-63">
          <mxGeometry width="50" height="50" relative="1" as="geometry">
            <mxPoint x="0.19000000000005457" as="sourcePoint" />
            <mxPoint y="50" as="targetPoint" />
          </mxGeometry>
        </mxCell>
        <mxCell id="85PkTE7ZiY2D7SkHWtGL-66" value="" style="endArrow=classic;html=1;rounded=0;fillColor=#d5e8d4;strokeColor=#82b366;curved=0;strokeWidth=2;" edge="1" parent="85PkTE7ZiY2D7SkHWtGL-63">
          <mxGeometry width="50" height="50" relative="1" as="geometry">
            <mxPoint x="39.190000000000055" y="49" as="sourcePoint" />
            <mxPoint x="39.190000000000055" as="targetPoint" />
          </mxGeometry>
        </mxCell>
        <mxCell id="bpxQ0GJYrz6rQO_tPiE3-1" value="&lt;font style=&quot;font-size: 12px;&quot;&gt;INSPECT &lt;/font&gt;&lt;font style=&quot;font-size: 8px;&quot;&gt;inside&lt;/font&gt;" style="text;strokeColor=none;fillColor=none;html=1;fontSize=24;fontStyle=1;verticalAlign=middle;align=center;fontColor=default;" vertex="1" parent="1">
          <mxGeometry x="1929.19" y="-699" width="90" height="40" as="geometry" />
        </mxCell>
      </root>
    </mxGraphModel>
  </diagram>
  <diagram id="DATNXKUMJaB3XZp_IE49" name="buffer">
    <mxGraphModel dx="1661" dy="595" grid="1" gridSize="10" guides="1" tooltips="1" connect="1" arrows="1" fold="1" page="1" pageScale="1" pageWidth="1169" pageHeight="827" math="0" shadow="0">
      <root>
        <mxCell id="0" />
        <mxCell id="1" parent="0" />
        <mxCell id="OXWFJR7iE9jTB6SQXzQ9-1" value="" style="rounded=1;whiteSpace=wrap;html=1;dashed=1;dashPattern=8 8;" vertex="1" parent="1">
          <mxGeometry x="519.83" y="418" width="430.17" height="212" as="geometry" />
        </mxCell>
        <mxCell id="fWyeLA3XtMvNuLp2zciD-1" value="BUFFER" style="rounded=1;whiteSpace=wrap;html=1;fillColor=#d5e8d4;strokeColor=#82b366;verticalAlign=top;" vertex="1" parent="1">
          <mxGeometry x="630.75" y="459.85" width="295.5" height="75.18" as="geometry" />
        </mxCell>
        <mxCell id="fWyeLA3XtMvNuLp2zciD-21" value="" style="endArrow=none;dashed=1;html=1;dashPattern=1 3;strokeWidth=2;rounded=0;strokeColor=#000000;exitX=0.182;exitY=1.002;exitDx=0;exitDy=0;exitPerimeter=0;" edge="1" parent="1" source="fWyeLA3XtMvNuLp2zciD-1">
          <mxGeometry width="50" height="50" relative="1" as="geometry">
            <mxPoint x="687.2700000000001" y="486.03" as="sourcePoint" />
            <mxPoint x="687.59" y="427.86" as="targetPoint" />
          </mxGeometry>
        </mxCell>
        <mxCell id="fWyeLA3XtMvNuLp2zciD-22" value="bufferSize" style="edgeLabel;html=1;align=center;verticalAlign=middle;resizable=0;points=[];" vertex="1" connectable="0" parent="fWyeLA3XtMvNuLp2zciD-21">
          <mxGeometry x="0.3385" y="2" relative="1" as="geometry">
            <mxPoint y="-19" as="offset" />
          </mxGeometry>
        </mxCell>
        <mxCell id="iE-ZH3Zz8LCnR8SnstbT-17" value="INSPECT" style="rounded=0;whiteSpace=wrap;html=1;verticalAlign=bottom;fontSize=16;fontStyle=3" vertex="1" parent="1">
          <mxGeometry x="519.8299999999999" y="175.5" width="242.55" height="200" as="geometry" />
        </mxCell>
        <mxCell id="fWyeLA3XtMvNuLp2zciD-13" value="" style="html=1;shadow=0;dashed=0;align=center;verticalAlign=middle;shape=mxgraph.arrows2.bendArrow;dy=15;dx=10.42;notch=12.4;arrowHead=30;rounded=1;rotation=90;fillColor=#d5e8d4;strokeColor=#82b366;" vertex="1" parent="1">
          <mxGeometry x="654.44" y="372.84" width="93.47" height="319.35" as="geometry" />
        </mxCell>
        <mxCell id="iE-ZH3Zz8LCnR8SnstbT-15" value="WEBAPP" style="rounded=0;whiteSpace=wrap;html=1;verticalAlign=bottom;fontSize=16;fontStyle=3" vertex="1" parent="1">
          <mxGeometry x="199" y="400.52" width="250" height="219.48" as="geometry" />
        </mxCell>
        <mxCell id="fWyeLA3XtMvNuLp2zciD-25" value="" style="html=1;verticalLabelPosition=bottom;align=center;labelBackgroundColor=#ffffff;verticalAlign=top;strokeWidth=2;strokeColor=#f00000;shadow=0;dashed=0;shape=mxgraph.ios7.icons.delete;" vertex="1" parent="1">
          <mxGeometry x="898.84" y="490.53" width="20.99" height="20.99" as="geometry" />
        </mxCell>
        <mxCell id="fWyeLA3XtMvNuLp2zciD-8" value="" style="points=[[0.25,0.25,0],[0.5,0,0],[0.75,0.25,0],[1,0.5,0],[0.75,0.75,0],[0.5,1,0],[0.25,0.75,0],[0,0.5,0]];shape=mxgraph.bpmn.gateway2;html=1;verticalLabelPosition=bottom;labelBackgroundColor=#ffffff;verticalAlign=top;align=center;perimeter=rhombusPerimeter;outlineConnect=0;outline=catching;symbol=timer;fillColor=#d5e8d4;strokeColor=#82b366;" vertex="1" parent="1">
          <mxGeometry x="826.6200000000001" y="515.82" width="37.5" height="38.5" as="geometry" />
        </mxCell>
        <mxCell id="iE-ZH3Zz8LCnR8SnstbT-14" value="SERVER" style="rounded=0;whiteSpace=wrap;html=1;verticalAlign=bottom;fontSize=16;fontStyle=3" vertex="1" parent="1">
          <mxGeometry x="199" y="153" width="250" height="200" as="geometry" />
        </mxCell>
        <mxCell id="fWyeLA3XtMvNuLp2zciD-26" value="Sessions" style="text;html=1;align=center;verticalAlign=middle;whiteSpace=wrap;rounded=0;" vertex="1" parent="1">
          <mxGeometry x="557.11" y="458.99999999999994" width="60" height="30" as="geometry" />
        </mxCell>
        <mxCell id="fWyeLA3XtMvNuLp2zciD-19" value="state=DISPATCH" style="text;html=1;align=center;verticalAlign=middle;whiteSpace=wrap;rounded=0;fontSize=8;" vertex="1" parent="1">
          <mxGeometry x="762.88" y="484.82" width="75.62" height="30" as="geometry" />
        </mxCell>
        <mxCell id="pbjLLM7L7Xr9Xz930BvR-4" value="BUFFER" style="rounded=0;whiteSpace=wrap;html=1;fillColor=#d5e8d4;strokeColor=#82b366;verticalAlign=bottom;" vertex="1" parent="1">
          <mxGeometry x="317.5" y="159.63" width="110" height="35.87" as="geometry" />
        </mxCell>
        <mxCell id="fWyeLA3XtMvNuLp2zciD-30" value="" style="html=1;shadow=0;dashed=0;align=center;verticalAlign=middle;shape=mxgraph.arrows2.arrow;dy=0;dx=10;notch=10;fillColor=#dae8fc;strokeColor=#6c8ebf;" vertex="1" parent="1">
          <mxGeometry x="544" y="489" width="200" height="24" as="geometry" />
        </mxCell>
        <mxCell id="fWyeLA3XtMvNuLp2zciD-23" value="" style="endArrow=none;dashed=1;html=1;dashPattern=1 3;strokeWidth=2;rounded=0;strokeColor=default;exitX=0.884;exitY=1.002;exitDx=0;exitDy=0;exitPerimeter=0;" edge="1" parent="1" source="fWyeLA3XtMvNuLp2zciD-1">
          <mxGeometry width="50" height="50" relative="1" as="geometry">
            <mxPoint x="890.1400000000001" y="511.86" as="sourcePoint" />
            <mxPoint x="890" y="428" as="targetPoint" />
          </mxGeometry>
        </mxCell>
        <mxCell id="fWyeLA3XtMvNuLp2zciD-24" value="bufferMaxSize" style="edgeLabel;html=1;align=center;verticalAlign=middle;resizable=0;points=[];" vertex="1" connectable="0" parent="fWyeLA3XtMvNuLp2zciD-23">
          <mxGeometry x="0.4923" y="5" relative="1" as="geometry">
            <mxPoint y="-10" as="offset" />
          </mxGeometry>
        </mxCell>
        <mxCell id="pbjLLM7L7Xr9Xz930BvR-6" value="BDD" style="shape=cylinder3;whiteSpace=wrap;html=1;boundedLbl=1;backgroundOutline=1;size=15;" vertex="1" parent="1">
          <mxGeometry x="846.25" y="270.5" width="80" height="105" as="geometry" />
        </mxCell>
        <mxCell id="fWyeLA3XtMvNuLp2zciD-18" value="state=CACHE" style="text;html=1;align=center;verticalAlign=middle;whiteSpace=wrap;rounded=0;fontSize=8;" vertex="1" parent="1">
          <mxGeometry x="674" y="484.82" width="75.62" height="30" as="geometry" />
        </mxCell>
        <mxCell id="fWyeLA3XtMvNuLp2zciD-29" value="" style="html=1;shadow=0;dashed=0;align=center;verticalAlign=middle;shape=mxgraph.arrows2.arrow;dy=0;dx=10;notch=7.51;fillColor=#fff2cc;strokeColor=#d6b656;" vertex="1" parent="1">
          <mxGeometry x="546" y="492.02" width="80" height="18" as="geometry" />
        </mxCell>
        <mxCell id="pbjLLM7L7Xr9Xz930BvR-7" value="" style="points=[[0.25,0.25,0],[0.5,0,0],[0.75,0.25,0],[1,0.5,0],[0.75,0.75,0],[0.5,1,0],[0.25,0.75,0],[0,0.5,0]];shape=mxgraph.bpmn.gateway2;html=1;verticalLabelPosition=bottom;labelBackgroundColor=#ffffff;verticalAlign=top;align=center;perimeter=rhombusPerimeter;outlineConnect=0;outline=catching;symbol=timer;fillColor=#d5e8d4;strokeColor=#82b366;" vertex="1" parent="1">
          <mxGeometry x="412.5" y="162.56" width="30" height="30" as="geometry" />
        </mxCell>
        <mxCell id="fWyeLA3XtMvNuLp2zciD-16" value="state=DISABLE" style="text;html=1;align=center;verticalAlign=middle;whiteSpace=wrap;rounded=0;fontSize=8;" vertex="1" parent="1">
          <mxGeometry x="549.29" y="484.82" width="75.62" height="30" as="geometry" />
        </mxCell>
        <mxCell id="pbjLLM7L7Xr9Xz930BvR-12" value="" style="endArrow=classic;startArrow=classic;html=1;rounded=0;entryX=0.005;entryY=0.63;entryDx=0;entryDy=0;entryPerimeter=0;" edge="1" parent="1" target="pbjLLM7L7Xr9Xz930BvR-15">
          <mxGeometry width="50" height="50" relative="1" as="geometry">
            <mxPoint x="130" y="276" as="sourcePoint" />
            <mxPoint x="219" y="269.8088235294118" as="targetPoint" />
          </mxGeometry>
        </mxCell>
        <mxCell id="pbjLLM7L7Xr9Xz930BvR-13" value="HTTP" style="edgeLabel;html=1;align=center;verticalAlign=middle;resizable=0;points=[];" vertex="1" connectable="0" parent="pbjLLM7L7Xr9Xz930BvR-12">
          <mxGeometry x="0.2156" y="-1" relative="1" as="geometry">
            <mxPoint x="-14" as="offset" />
          </mxGeometry>
        </mxCell>
        <mxCell id="pbjLLM7L7Xr9Xz930BvR-14" value="" style="endArrow=none;dashed=1;html=1;rounded=0;entryX=0.25;entryY=1;entryDx=0;entryDy=0;exitX=0.9;exitY=0.2;exitDx=0;exitDy=0;exitPerimeter=0;" edge="1" parent="1" source="pbjLLM7L7Xr9Xz930BvR-15" target="pbjLLM7L7Xr9Xz930BvR-4">
          <mxGeometry width="50" height="50" relative="1" as="geometry">
            <mxPoint x="271" y="233.7479674796748" as="sourcePoint" />
            <mxPoint x="549" y="286" as="targetPoint" />
          </mxGeometry>
        </mxCell>
        <mxCell id="pbjLLM7L7Xr9Xz930BvR-15" value="" style="aspect=fixed;sketch=0;html=1;dashed=0;whitespace=wrap;verticalLabelPosition=bottom;verticalAlign=top;fillColor=#000000;strokeColor=#ffffff;points=[[0.005,0.63,0],[0.1,0.2,0],[0.9,0.2,0],[0.5,0,0],[0.995,0.63,0],[0.72,0.99,0],[0.5,1,0],[0.28,0.99,0]];shape=mxgraph.kubernetes.icon2;prIcon=api" vertex="1" parent="1">
          <mxGeometry x="219" y="246" width="50" height="48" as="geometry" />
        </mxCell>
        <mxCell id="pbjLLM7L7Xr9Xz930BvR-16" value="" style="aspect=fixed;sketch=0;html=1;dashed=0;whitespace=wrap;verticalLabelPosition=bottom;verticalAlign=top;fillColor=#000000;strokeColor=#ffffff;points=[[0.005,0.63,0],[0.1,0.2,0],[0.9,0.2,0],[0.5,0,0],[0.995,0.63,0],[0.72,0.99,0],[0.5,1,0],[0.28,0.99,0]];shape=mxgraph.kubernetes.icon2;prIcon=api" vertex="1" parent="1">
          <mxGeometry x="539" y="244" width="50" height="48" as="geometry" />
        </mxCell>
        <mxCell id="pbjLLM7L7Xr9Xz930BvR-17" value="" style="endArrow=none;dashed=1;html=1;rounded=0;exitX=0.995;exitY=0.63;exitDx=0;exitDy=0;exitPerimeter=0;entryX=0.25;entryY=1;entryDx=0;entryDy=0;" edge="1" parent="1" source="pbjLLM7L7Xr9Xz930BvR-16" target="iE-ZH3Zz8LCnR8SnstbT-11">
          <mxGeometry width="50" height="50" relative="1" as="geometry">
            <mxPoint x="290" y="293.5" as="sourcePoint" />
            <mxPoint x="632.5000000000003" y="230.5" as="targetPoint" />
          </mxGeometry>
        </mxCell>
        <mxCell id="pbjLLM7L7Xr9Xz930BvR-18" value="" style="endArrow=classic;startArrow=none;html=1;rounded=0;entryX=0.005;entryY=0.63;entryDx=0;entryDy=0;entryPerimeter=0;exitX=1;exitY=0.5;exitDx=0;exitDy=0;startFill=0;exitPerimeter=0;" edge="1" parent="1" source="pbjLLM7L7Xr9Xz930BvR-7" target="pbjLLM7L7Xr9Xz930BvR-16">
          <mxGeometry width="50" height="50" relative="1" as="geometry">
            <mxPoint x="49" y="273" as="sourcePoint" />
            <mxPoint x="229" y="273" as="targetPoint" />
          </mxGeometry>
        </mxCell>
        <mxCell id="pbjLLM7L7Xr9Xz930BvR-19" value="HTTP" style="edgeLabel;html=1;align=center;verticalAlign=middle;resizable=0;points=[];" vertex="1" connectable="0" parent="pbjLLM7L7Xr9Xz930BvR-18">
          <mxGeometry x="0.2156" y="-1" relative="1" as="geometry">
            <mxPoint x="-1" y="-7" as="offset" />
          </mxGeometry>
        </mxCell>
        <mxCell id="pbjLLM7L7Xr9Xz930BvR-20" value="" style="aspect=fixed;sketch=0;html=1;dashed=0;whitespace=wrap;verticalLabelPosition=bottom;verticalAlign=top;fillColor=#000000;strokeColor=#ffffff;points=[[0.005,0.63,0],[0.1,0.2,0],[0.9,0.2,0],[0.5,0,0],[0.995,0.63,0],[0.72,0.99,0],[0.5,1,0],[0.28,0.99,0]];shape=mxgraph.kubernetes.icon2;prIcon=api" vertex="1" parent="1">
          <mxGeometry x="219" y="294" width="50" height="48" as="geometry" />
        </mxCell>
        <mxCell id="pbjLLM7L7Xr9Xz930BvR-21" value="" style="aspect=fixed;sketch=0;html=1;dashed=0;whitespace=wrap;verticalLabelPosition=bottom;verticalAlign=top;fillColor=#000000;strokeColor=#ffffff;points=[[0.005,0.63,0],[0.1,0.2,0],[0.9,0.2,0],[0.5,0,0],[0.995,0.63,0],[0.72,0.99,0],[0.5,1,0],[0.28,0.99,0]];shape=mxgraph.kubernetes.icon2;prIcon=api" vertex="1" parent="1">
          <mxGeometry x="219" y="191" width="50" height="48" as="geometry" />
        </mxCell>
        <mxCell id="pbjLLM7L7Xr9Xz930BvR-22" value="" style="endArrow=classic;startArrow=classic;html=1;rounded=0;entryX=0.005;entryY=0.63;entryDx=0;entryDy=0;entryPerimeter=0;" edge="1" parent="1" target="pbjLLM7L7Xr9Xz930BvR-21">
          <mxGeometry width="50" height="50" relative="1" as="geometry">
            <mxPoint x="130" y="221" as="sourcePoint" />
            <mxPoint x="229" y="286" as="targetPoint" />
          </mxGeometry>
        </mxCell>
        <mxCell id="pbjLLM7L7Xr9Xz930BvR-23" value="HTTP" style="edgeLabel;html=1;align=center;verticalAlign=middle;resizable=0;points=[];" vertex="1" connectable="0" parent="pbjLLM7L7Xr9Xz930BvR-22">
          <mxGeometry x="0.2156" y="-1" relative="1" as="geometry">
            <mxPoint x="-14" as="offset" />
          </mxGeometry>
        </mxCell>
        <mxCell id="pbjLLM7L7Xr9Xz930BvR-24" value="" style="endArrow=classic;startArrow=classic;html=1;rounded=0;entryX=0.005;entryY=0.63;entryDx=0;entryDy=0;entryPerimeter=0;" edge="1" parent="1" target="pbjLLM7L7Xr9Xz930BvR-20">
          <mxGeometry width="50" height="50" relative="1" as="geometry">
            <mxPoint x="130" y="324" as="sourcePoint" />
            <mxPoint x="229" y="286" as="targetPoint" />
          </mxGeometry>
        </mxCell>
        <mxCell id="pbjLLM7L7Xr9Xz930BvR-25" value="HTTP" style="edgeLabel;html=1;align=center;verticalAlign=middle;resizable=0;points=[];" vertex="1" connectable="0" parent="pbjLLM7L7Xr9Xz930BvR-24">
          <mxGeometry x="0.2156" y="-1" relative="1" as="geometry">
            <mxPoint x="-15" as="offset" />
          </mxGeometry>
        </mxCell>
        <mxCell id="pbjLLM7L7Xr9Xz930BvR-26" value="" style="endArrow=none;dashed=1;html=1;rounded=0;entryX=0.25;entryY=1;entryDx=0;entryDy=0;exitX=0.995;exitY=0.63;exitDx=0;exitDy=0;exitPerimeter=0;" edge="1" parent="1" source="pbjLLM7L7Xr9Xz930BvR-20" target="pbjLLM7L7Xr9Xz930BvR-4">
          <mxGeometry width="50" height="50" relative="1" as="geometry">
            <mxPoint x="274" y="253" as="sourcePoint" />
            <mxPoint x="317" y="212" as="targetPoint" />
          </mxGeometry>
        </mxCell>
        <mxCell id="pbjLLM7L7Xr9Xz930BvR-27" value="" style="endArrow=none;dashed=1;html=1;rounded=0;entryX=0.995;entryY=0.63;entryDx=0;entryDy=0;entryPerimeter=0;exitX=0.25;exitY=1;exitDx=0;exitDy=0;" edge="1" parent="1" source="pbjLLM7L7Xr9Xz930BvR-4" target="pbjLLM7L7Xr9Xz930BvR-21">
          <mxGeometry width="50" height="50" relative="1" as="geometry">
            <mxPoint x="279" y="321" as="sourcePoint" />
            <mxPoint x="317" y="212" as="targetPoint" />
          </mxGeometry>
        </mxCell>
        <mxCell id="pbjLLM7L7Xr9Xz930BvR-28" value="" style="sketch=0;pointerEvents=1;shadow=0;dashed=0;html=1;strokeColor=none;fillColor=#000000;aspect=fixed;labelPosition=center;verticalLabelPosition=bottom;verticalAlign=top;align=center;outlineConnect=0;shape=mxgraph.vvd.memory;" vertex="1" parent="1">
          <mxGeometry x="317.5" y="159.63" width="41.76" height="15.87" as="geometry" />
        </mxCell>
        <mxCell id="pbjLLM7L7Xr9Xz930BvR-30" value="" style="endArrow=classic;startArrow=none;html=1;rounded=0;entryX=0;entryY=0;entryDx=0;entryDy=71.25;entryPerimeter=0;startFill=0;edgeStyle=orthogonalEdgeStyle;curved=1;" edge="1" parent="1" source="iE-ZH3Zz8LCnR8SnstbT-12" target="pbjLLM7L7Xr9Xz930BvR-6">
          <mxGeometry width="50" height="50" relative="1" as="geometry">
            <mxPoint x="742.5000000000003" y="263.5" as="sourcePoint" />
            <mxPoint x="845.33" y="344.75" as="targetPoint" />
          </mxGeometry>
        </mxCell>
        <mxCell id="pbjLLM7L7Xr9Xz930BvR-31" value="JDBC" style="edgeLabel;html=1;align=center;verticalAlign=middle;resizable=0;points=[];" vertex="1" connectable="0" parent="pbjLLM7L7Xr9Xz930BvR-30">
          <mxGeometry x="0.2156" y="-1" relative="1" as="geometry">
            <mxPoint x="-3" y="-19" as="offset" />
          </mxGeometry>
        </mxCell>
        <mxCell id="pbjLLM7L7Xr9Xz930BvR-33" value="" style="sketch=0;pointerEvents=1;shadow=0;dashed=0;html=1;strokeColor=none;fillColor=#000000;labelPosition=center;verticalLabelPosition=bottom;verticalAlign=top;outlineConnect=0;align=center;shape=mxgraph.office.concepts.web_page;" vertex="1" parent="1">
          <mxGeometry x="209" y="441.4" width="50" height="54" as="geometry" />
        </mxCell>
        <mxCell id="pbjLLM7L7Xr9Xz930BvR-34" value="" style="sketch=0;pointerEvents=1;shadow=0;dashed=0;html=1;strokeColor=none;fillColor=#000000;labelPosition=center;verticalLabelPosition=bottom;verticalAlign=top;outlineConnect=0;align=center;shape=mxgraph.office.concepts.web_page;" vertex="1" parent="1">
          <mxGeometry x="209" y="495.4" width="50" height="54" as="geometry" />
        </mxCell>
        <mxCell id="pbjLLM7L7Xr9Xz930BvR-36" value="" style="sketch=0;pointerEvents=1;shadow=0;dashed=0;html=1;strokeColor=none;fillColor=#000000;labelPosition=center;verticalLabelPosition=bottom;verticalAlign=top;outlineConnect=0;align=center;shape=mxgraph.office.concepts.web_page;" vertex="1" parent="1">
          <mxGeometry x="209" y="551.4000000000001" width="50" height="54" as="geometry" />
        </mxCell>
        <mxCell id="pbjLLM7L7Xr9Xz930BvR-37" value="" style="curved=1;endArrow=none;html=1;rounded=0;endFill=0;startArrow=classic;startFill=1;" edge="1" parent="1">
          <mxGeometry width="50" height="50" relative="1" as="geometry">
            <mxPoint x="199" y="511.40000000000003" as="sourcePoint" />
            <mxPoint x="199" y="461.4" as="targetPoint" />
            <Array as="points">
              <mxPoint x="199" y="511.40000000000003" />
              <mxPoint x="149" y="461.4" />
            </Array>
          </mxGeometry>
        </mxCell>
        <mxCell id="pbjLLM7L7Xr9Xz930BvR-38" value="URL(2)" style="edgeLabel;html=1;align=center;verticalAlign=middle;resizable=0;points=[];" vertex="1" connectable="0" parent="pbjLLM7L7Xr9Xz930BvR-37">
          <mxGeometry x="-0.4241" y="-1" relative="1" as="geometry">
            <mxPoint as="offset" />
          </mxGeometry>
        </mxCell>
        <mxCell id="pbjLLM7L7Xr9Xz930BvR-39" value="" style="curved=1;endArrow=none;html=1;rounded=0;endFill=0;startArrow=classic;startFill=1;" edge="1" parent="1">
          <mxGeometry width="50" height="50" relative="1" as="geometry">
            <mxPoint x="199" y="571.4000000000001" as="sourcePoint" />
            <mxPoint x="199" y="521.4000000000001" as="targetPoint" />
            <Array as="points">
              <mxPoint x="199" y="571.4000000000001" />
              <mxPoint x="149" y="521.4000000000001" />
            </Array>
          </mxGeometry>
        </mxCell>
        <mxCell id="pbjLLM7L7Xr9Xz930BvR-40" value="URL .." style="edgeLabel;html=1;align=center;verticalAlign=middle;resizable=0;points=[];" vertex="1" connectable="0" parent="pbjLLM7L7Xr9Xz930BvR-39">
          <mxGeometry x="-0.3186" y="-7" relative="1" as="geometry">
            <mxPoint as="offset" />
          </mxGeometry>
        </mxCell>
        <mxCell id="pbjLLM7L7Xr9Xz930BvR-44" value="" style="endArrow=classic;startArrow=none;html=1;rounded=0;entryX=0.005;entryY=0.63;entryDx=0;entryDy=0;entryPerimeter=0;startFill=0;exitX=1;exitY=0.5;exitDx=0;exitDy=0;exitPerimeter=0;" edge="1" parent="1" source="GdJlk97vvJEw1RzfsGBS-14" target="pbjLLM7L7Xr9Xz930BvR-16">
          <mxGeometry width="50" height="50" relative="1" as="geometry">
            <mxPoint x="416.5" y="448.5" as="sourcePoint" />
            <mxPoint x="559" y="379" as="targetPoint" />
          </mxGeometry>
        </mxCell>
        <mxCell id="pbjLLM7L7Xr9Xz930BvR-45" value="HTTP" style="edgeLabel;html=1;align=center;verticalAlign=middle;resizable=0;points=[];" vertex="1" connectable="0" parent="pbjLLM7L7Xr9Xz930BvR-44">
          <mxGeometry x="0.2156" y="-1" relative="1" as="geometry">
            <mxPoint x="-2" y="2" as="offset" />
          </mxGeometry>
        </mxCell>
        <mxCell id="pbjLLM7L7Xr9Xz930BvR-46" value="" style="endArrow=none;dashed=1;html=1;rounded=0;exitX=0.25;exitY=1;exitDx=0;exitDy=0;" edge="1" parent="1" source="GdJlk97vvJEw1RzfsGBS-13" target="pbjLLM7L7Xr9Xz930BvR-33">
          <mxGeometry width="50" height="50" relative="1" as="geometry">
            <mxPoint x="306.5" y="451.52" as="sourcePoint" />
            <mxPoint x="317" y="251.51999999999998" as="targetPoint" />
          </mxGeometry>
        </mxCell>
        <mxCell id="pbjLLM7L7Xr9Xz930BvR-47" value="" style="endArrow=none;dashed=1;html=1;rounded=0;exitX=0.25;exitY=1;exitDx=0;exitDy=0;" edge="1" parent="1" source="GdJlk97vvJEw1RzfsGBS-13" target="pbjLLM7L7Xr9Xz930BvR-34">
          <mxGeometry width="50" height="50" relative="1" as="geometry">
            <mxPoint x="306.5" y="451.52" as="sourcePoint" />
            <mxPoint x="269" y="458.52" as="targetPoint" />
          </mxGeometry>
        </mxCell>
        <mxCell id="pbjLLM7L7Xr9Xz930BvR-48" value="" style="endArrow=none;dashed=1;html=1;rounded=0;exitX=0.25;exitY=1;exitDx=0;exitDy=0;" edge="1" parent="1" source="GdJlk97vvJEw1RzfsGBS-13" target="pbjLLM7L7Xr9Xz930BvR-36">
          <mxGeometry width="50" height="50" relative="1" as="geometry">
            <mxPoint x="306.5" y="451.52" as="sourcePoint" />
            <mxPoint x="269" y="493.52" as="targetPoint" />
          </mxGeometry>
        </mxCell>
        <mxCell id="pbjLLM7L7Xr9Xz930BvR-49" value="RestSession" style="text;html=1;align=center;verticalAlign=middle;whiteSpace=wrap;rounded=0;" vertex="1" parent="1">
          <mxGeometry x="264.26" y="244" width="95" height="30" as="geometry" />
        </mxCell>
        <mxCell id="pbjLLM7L7Xr9Xz930BvR-50" value="MainSession" style="text;html=1;align=center;verticalAlign=middle;whiteSpace=wrap;rounded=0;" vertex="1" parent="1">
          <mxGeometry x="299" y="485.52" width="95" height="30" as="geometry" />
        </mxCell>
        <mxCell id="pbjLLM7L7Xr9Xz930BvR-51" value="Session" style="text;html=1;align=center;verticalAlign=middle;whiteSpace=wrap;rounded=0;" vertex="1" parent="1">
          <mxGeometry x="587.5" y="259.75" width="95" height="30" as="geometry" />
        </mxCell>
        <mxCell id="pbjLLM7L7Xr9Xz930BvR-58" value="" style="curved=1;endArrow=none;html=1;rounded=0;endFill=0;startArrow=classic;startFill=1;" edge="1" parent="1">
          <mxGeometry width="50" height="50" relative="1" as="geometry">
            <mxPoint x="199" y="456.9" as="sourcePoint" />
            <mxPoint x="199" y="390" as="targetPoint" />
            <Array as="points">
              <mxPoint x="199" y="456.9" />
              <mxPoint x="149" y="406.9" />
            </Array>
          </mxGeometry>
        </mxCell>
        <mxCell id="pbjLLM7L7Xr9Xz930BvR-59" value="URL(1)" style="edgeLabel;html=1;align=center;verticalAlign=middle;resizable=0;points=[];" vertex="1" connectable="0" parent="pbjLLM7L7Xr9Xz930BvR-58">
          <mxGeometry x="-0.4534" y="1" relative="1" as="geometry">
            <mxPoint as="offset" />
          </mxGeometry>
        </mxCell>
        <mxCell id="pbjLLM7L7Xr9Xz930BvR-61" value="" style="verticalLabelPosition=bottom;html=1;verticalAlign=top;align=center;strokeColor=none;fillColor=#000000;shape=mxgraph.azure.automation;pointerEvents=1;" vertex="1" parent="1">
          <mxGeometry x="362.75" y="294" width="42.5" height="37" as="geometry" />
        </mxCell>
        <mxCell id="pbjLLM7L7Xr9Xz930BvR-62" value="" style="endArrow=none;dashed=1;html=1;rounded=0;entryX=0.25;entryY=1;entryDx=0;entryDy=0;exitX=0.23;exitY=0.41;exitDx=0;exitDy=0;exitPerimeter=0;" edge="1" parent="1" source="pbjLLM7L7Xr9Xz930BvR-61" target="pbjLLM7L7Xr9Xz930BvR-4">
          <mxGeometry width="50" height="50" relative="1" as="geometry">
            <mxPoint x="279" y="321" as="sourcePoint" />
            <mxPoint x="317" y="218" as="targetPoint" />
          </mxGeometry>
        </mxCell>
        <mxCell id="pbjLLM7L7Xr9Xz930BvR-63" value="" style="curved=1;endArrow=classic;html=1;rounded=0;endFill=1;startArrow=none;startFill=0;exitX=0.9;exitY=0.77;exitDx=0;exitDy=0;exitPerimeter=0;entryX=1;entryY=0.41;entryDx=0;entryDy=0;entryPerimeter=0;" edge="1" parent="1" source="pbjLLM7L7Xr9Xz930BvR-61" target="pbjLLM7L7Xr9Xz930BvR-61">
          <mxGeometry width="50" height="50" relative="1" as="geometry">
            <mxPoint x="423.5" y="329" as="sourcePoint" />
            <mxPoint x="416" y="306" as="targetPoint" />
            <Array as="points">
              <mxPoint x="420" y="340" />
              <mxPoint x="440" y="290" />
            </Array>
          </mxGeometry>
        </mxCell>
        <mxCell id="NDq9Lpbl8GVpV0W0ikAM-1" value="AUTO" style="edgeLabel;html=1;align=center;verticalAlign=middle;resizable=0;points=[];" vertex="1" connectable="0" parent="pbjLLM7L7Xr9Xz930BvR-63">
          <mxGeometry x="0.0666" relative="1" as="geometry">
            <mxPoint x="-10" y="13" as="offset" />
          </mxGeometry>
        </mxCell>
        <mxCell id="pbjLLM7L7Xr9Xz930BvR-65" value="MainSession" style="text;html=1;align=center;verticalAlign=middle;whiteSpace=wrap;rounded=0;" vertex="1" parent="1">
          <mxGeometry x="336.5" y="271" width="95" height="30" as="geometry" />
        </mxCell>
        <mxCell id="OXWFJR7iE9jTB6SQXzQ9-18" value="DISPATCH" style="text;html=1;align=center;verticalAlign=middle;whiteSpace=wrap;rounded=0;fontSize=10;" vertex="1" parent="1">
          <mxGeometry x="851" y="540.0300000000001" width="84" height="21.87" as="geometry" />
        </mxCell>
        <mxCell id="OXWFJR7iE9jTB6SQXzQ9-19" value="" style="sketch=0;outlineConnect=0;fontColor=#232F3E;gradientColor=none;fillColor=#000000;strokeColor=none;dashed=0;verticalLabelPosition=bottom;verticalAlign=top;align=center;html=1;fontSize=12;fontStyle=0;aspect=fixed;pointerEvents=1;shape=mxgraph.aws4.magnifying_glass_2;" vertex="1" parent="1">
          <mxGeometry x="504" y="399" width="47" height="47" as="geometry" />
        </mxCell>
        <mxCell id="GdJlk97vvJEw1RzfsGBS-13" value="BUFFER" style="rounded=0;whiteSpace=wrap;html=1;fillColor=#d5e8d4;strokeColor=#82b366;verticalAlign=bottom;" vertex="1" parent="1">
          <mxGeometry x="314.5" y="406.9" width="110" height="35.87" as="geometry" />
        </mxCell>
        <mxCell id="GdJlk97vvJEw1RzfsGBS-14" value="" style="points=[[0.25,0.25,0],[0.5,0,0],[0.75,0.25,0],[1,0.5,0],[0.75,0.75,0],[0.5,1,0],[0.25,0.75,0],[0,0.5,0]];shape=mxgraph.bpmn.gateway2;html=1;verticalLabelPosition=bottom;labelBackgroundColor=#ffffff;verticalAlign=top;align=center;perimeter=rhombusPerimeter;outlineConnect=0;outline=catching;symbol=timer;fillColor=#d5e8d4;strokeColor=#82b366;" vertex="1" parent="1">
          <mxGeometry x="409.5" y="409.83" width="30" height="30" as="geometry" />
        </mxCell>
        <mxCell id="GdJlk97vvJEw1RzfsGBS-15" value="" style="sketch=0;pointerEvents=1;shadow=0;dashed=0;html=1;strokeColor=none;fillColor=#000000;aspect=fixed;labelPosition=center;verticalLabelPosition=bottom;verticalAlign=top;align=center;outlineConnect=0;shape=mxgraph.vvd.memory;" vertex="1" parent="1">
          <mxGeometry x="314.5" y="406.9" width="41.76" height="15.87" as="geometry" />
        </mxCell>
        <mxCell id="iE-ZH3Zz8LCnR8SnstbT-11" value="BUFFER" style="rounded=0;whiteSpace=wrap;html=1;fillColor=#d5e8d4;strokeColor=#82b366;verticalAlign=bottom;" vertex="1" parent="1">
          <mxGeometry x="633.0000000000001" y="180.5" width="110" height="35.87" as="geometry" />
        </mxCell>
        <mxCell id="iE-ZH3Zz8LCnR8SnstbT-12" value="" style="points=[[0.25,0.25,0],[0.5,0,0],[0.75,0.25,0],[1,0.5,0],[0.75,0.75,0],[0.5,1,0],[0.25,0.75,0],[0,0.5,0]];shape=mxgraph.bpmn.gateway2;html=1;verticalLabelPosition=bottom;labelBackgroundColor=#ffffff;verticalAlign=top;align=center;perimeter=rhombusPerimeter;outlineConnect=0;outline=catching;symbol=timer;fillColor=#d5e8d4;strokeColor=#82b366;" vertex="1" parent="1">
          <mxGeometry x="728.0000000000001" y="183.43" width="30" height="30" as="geometry" />
        </mxCell>
        <mxCell id="iE-ZH3Zz8LCnR8SnstbT-13" value="" style="sketch=0;pointerEvents=1;shadow=0;dashed=0;html=1;strokeColor=none;fillColor=#000000;aspect=fixed;labelPosition=center;verticalLabelPosition=bottom;verticalAlign=top;align=center;outlineConnect=0;shape=mxgraph.vvd.memory;" vertex="1" parent="1">
          <mxGeometry x="633.0000000000001" y="180.5" width="41.76" height="15.87" as="geometry" />
        </mxCell>
        <mxCell id="fWyeLA3XtMvNuLp2zciD-2" value="" style="sketch=0;pointerEvents=1;shadow=0;dashed=0;html=1;strokeColor=none;fillColor=#000000;aspect=fixed;labelPosition=center;verticalLabelPosition=bottom;verticalAlign=top;align=center;outlineConnect=0;shape=mxgraph.vvd.memory;" vertex="1" parent="1">
          <mxGeometry x="631.75" y="459.8499999999999" width="50" height="19" as="geometry" />
        </mxCell>
        <mxCell id="lKancGL3g61K4LGPcW0m-2" value="ERROR" style="text;html=1;align=center;verticalAlign=middle;whiteSpace=wrap;rounded=0;fontColor=#c57774;" vertex="1" parent="1">
          <mxGeometry x="747.0000000000001" y="587.7" width="60" height="30" as="geometry" />
        </mxCell>
        <mxCell id="cLj1m3OLr_ZuVMsza3OP-4" value="" style="html=1;shadow=0;dashed=0;align=center;verticalAlign=middle;shape=mxgraph.arrows2.jumpInArrow;dy=15;dx=38;arrowHead=55;rotation=-135;fillColor=default;strokeColor=#b85450;" vertex="1" parent="1">
          <mxGeometry x="597.42" y="441.98" width="253.26" height="221.13" as="geometry" />
        </mxCell>
        <mxCell id="02doyG5Hpz3sgTDNKgyk-1" value="&lt;font style=&quot;font-size: 12px;&quot;&gt;INSPECT &lt;/font&gt;&lt;font style=&quot;font-size: 8px;&quot;&gt;inside&lt;/font&gt;" style="text;strokeColor=none;fillColor=none;html=1;fontSize=24;fontStyle=1;verticalAlign=middle;align=center;fontColor=default;" vertex="1" parent="1">
          <mxGeometry x="365.75" y="122.63" width="90" height="40" as="geometry" />
        </mxCell>
        <mxCell id="02doyG5Hpz3sgTDNKgyk-2" value="&lt;font style=&quot;font-size: 12px;&quot;&gt;INSPECT &lt;/font&gt;&lt;font style=&quot;font-size: 8px;&quot;&gt;inside&lt;/font&gt;" style="text;strokeColor=none;fillColor=none;html=1;fontSize=24;fontStyle=1;verticalAlign=middle;align=center;fontColor=default;" vertex="1" parent="1">
          <mxGeometry x="365.75" y="369.83000000000004" width="90" height="40" as="geometry" />
        </mxCell>
      </root>
    </mxGraphModel>
  </diagram>
  <diagram id="fHc-kdg0hb4DRP3-6ZGG" name="call_chain">
    <mxGraphModel dx="492" dy="595" grid="1" gridSize="10" guides="1" tooltips="1" connect="1" arrows="1" fold="1" page="1" pageScale="1" pageWidth="1169" pageHeight="827" math="0" shadow="0">
      <root>
        <mxCell id="0" />
        <mxCell id="1" parent="0" />
        <mxCell id="a-SGA_csve0d15C5jlOn-4" value="NAMESPACE" style="rounded=0;whiteSpace=wrap;html=1;fillColor=default;strokeColor=#36393d;verticalAlign=top;fontStyle=5" vertex="1" parent="1">
          <mxGeometry x="1350" y="190" width="850" height="120" as="geometry" />
        </mxCell>
        <mxCell id="MmJNo8ZiRcWZj8HR9yvj-19" value="" style="shape=document;whiteSpace=wrap;html=1;boundedLbl=1;fillColor=default;strokeColor=default;fontColor=#1C2417;" vertex="1" parent="1">
          <mxGeometry x="1820" y="383.5" width="380" height="284.5" as="geometry" />
        </mxCell>
        <mxCell id="adPBjhDnSVXvnW1uqJYl-11" style="rounded=0;orthogonalLoop=1;jettySize=auto;html=1;exitX=0.5;exitY=1;exitDx=0;exitDy=0;entryX=0.5;entryY=0;entryDx=0;entryDy=0;dashed=1;" edge="1" parent="1" source="bb7agJlHVT44qzU_Prj4-1" target="rI8qwl_EJIvBNCSjrs9K-1">
          <mxGeometry relative="1" as="geometry" />
        </mxCell>
        <mxCell id="bb7agJlHVT44qzU_Prj4-1" value="SERVER" style="rounded=0;whiteSpace=wrap;html=1;verticalAlign=middle;fontSize=16;fontStyle=3;" vertex="1" parent="1">
          <mxGeometry x="1840" y="234.5" width="170" height="50" as="geometry" />
        </mxCell>
        <mxCell id="adPBjhDnSVXvnW1uqJYl-10" style="rounded=0;orthogonalLoop=1;jettySize=auto;html=1;exitX=0.5;exitY=1;exitDx=0;exitDy=0;dashed=1;entryX=0.5;entryY=0;entryDx=0;entryDy=0;" edge="1" parent="1" source="LxutGrlVybiB39dDs7rN-4" target="rI8qwl_EJIvBNCSjrs9K-1">
          <mxGeometry relative="1" as="geometry">
            <mxPoint x="1769.9999999999998" y="495.5" as="targetPoint" />
          </mxGeometry>
        </mxCell>
        <mxCell id="MmJNo8ZiRcWZj8HR9yvj-18" style="rounded=0;hachureGap=4;orthogonalLoop=1;jettySize=auto;html=1;exitX=1;exitY=0.5;exitDx=0;exitDy=0;entryX=0;entryY=0.5;entryDx=0;entryDy=0;fontFamily=Architects Daughter;fontSource=https%3A%2F%2Ffonts.googleapis.com%2Fcss%3Ffamily%3DArchitects%2BDaughter;" edge="1" parent="1" source="LxutGrlVybiB39dDs7rN-4" target="bb7agJlHVT44qzU_Prj4-1">
          <mxGeometry relative="1" as="geometry" />
        </mxCell>
        <mxCell id="LxutGrlVybiB39dDs7rN-4" value="GATEWAY" style="rounded=0;whiteSpace=wrap;html=1;verticalAlign=middle;fontSize=16;fontStyle=3;" vertex="1" parent="1">
          <mxGeometry x="1603" y="234.5" width="160" height="50" as="geometry" />
        </mxCell>
        <mxCell id="fZMwDy0UpTnVLqqQOGrZ-1" value="DATABASE" style="ellipse;shape=cloud;whiteSpace=wrap;html=1;fontSize=13;fontStyle=3;" vertex="1" parent="1">
          <mxGeometry x="2070" y="208.75" width="120" height="90" as="geometry" />
        </mxCell>
        <mxCell id="zP3OjfW6LHFVwhZtErTv-1" value="" style="shape=cylinder3;whiteSpace=wrap;html=1;boundedLbl=1;backgroundOutline=1;size=15;" vertex="1" parent="1">
          <mxGeometry x="1690" y="458" width="70" height="70" as="geometry" />
        </mxCell>
        <mxCell id="zP3OjfW6LHFVwhZtErTv-2" style="edgeStyle=orthogonalEdgeStyle;rounded=0;orthogonalLoop=1;jettySize=auto;html=1;exitX=0.5;exitY=1;exitDx=0;exitDy=0;entryX=0.5;entryY=0;entryDx=0;entryDy=0;entryPerimeter=0;curved=1;" edge="1" parent="1" source="rI8qwl_EJIvBNCSjrs9K-1" target="zP3OjfW6LHFVwhZtErTv-1">
          <mxGeometry relative="1" as="geometry" />
        </mxCell>
        <mxCell id="adPBjhDnSVXvnW1uqJYl-9" style="rounded=0;orthogonalLoop=1;jettySize=auto;html=1;exitX=0.5;exitY=1;exitDx=0;exitDy=0;dashed=1;entryX=0.5;entryY=0;entryDx=0;entryDy=0;" edge="1" parent="1" source="zP3OjfW6LHFVwhZtErTv-3" target="rI8qwl_EJIvBNCSjrs9K-1">
          <mxGeometry relative="1" as="geometry" />
        </mxCell>
        <mxCell id="a-SGA_csve0d15C5jlOn-2" style="rounded=0;orthogonalLoop=1;jettySize=auto;html=1;exitX=1;exitY=0.5;exitDx=0;exitDy=0;entryX=0;entryY=0.5;entryDx=0;entryDy=0;" edge="1" parent="1" source="zP3OjfW6LHFVwhZtErTv-3" target="a-SGA_csve0d15C5jlOn-1">
          <mxGeometry relative="1" as="geometry" />
        </mxCell>
        <mxCell id="zP3OjfW6LHFVwhZtErTv-3" value="WEBAPP" style="rounded=0;whiteSpace=wrap;html=1;verticalAlign=middle;fontSize=16;fontStyle=3;" vertex="1" parent="1">
          <mxGeometry x="1360" y="234.5" width="160" height="50" as="geometry" />
        </mxCell>
        <mxCell id="adPBjhDnSVXvnW1uqJYl-4" style="rounded=0;orthogonalLoop=1;jettySize=auto;html=1;entryX=0.16;entryY=0.55;entryDx=0;entryDy=0;entryPerimeter=0;exitX=1;exitY=0.5;exitDx=0;exitDy=0;" edge="1" parent="1" source="bb7agJlHVT44qzU_Prj4-1" target="fZMwDy0UpTnVLqqQOGrZ-1">
          <mxGeometry relative="1" as="geometry" />
        </mxCell>
        <mxCell id="adPBjhDnSVXvnW1uqJYl-5" value="USER" style="shape=actor;whiteSpace=wrap;html=1;verticalAlign=bottom;" vertex="1" parent="1">
          <mxGeometry x="1290" y="231" width="50" height="57" as="geometry" />
        </mxCell>
        <mxCell id="adPBjhDnSVXvnW1uqJYl-2" style="rounded=0;orthogonalLoop=1;jettySize=auto;html=1;entryX=0;entryY=0.5;entryDx=0;entryDy=0;exitX=1;exitY=0.5;exitDx=0;exitDy=0;" edge="1" parent="1" source="zP3OjfW6LHFVwhZtErTv-3" target="LxutGrlVybiB39dDs7rN-4">
          <mxGeometry relative="1" as="geometry">
            <mxPoint x="1528.8400000000001" y="287" as="sourcePoint" />
          </mxGeometry>
        </mxCell>
        <mxCell id="khSafvsSSUewSuaT2HWd-2" value="RestSession" style="text;html=1;align=center;verticalAlign=middle;whiteSpace=wrap;rounded=0;fontFamily=Helvetica;fontSize=10;" vertex="1" parent="1">
          <mxGeometry x="1682" y="288" width="70" height="30" as="geometry" />
        </mxCell>
        <mxCell id="khSafvsSSUewSuaT2HWd-3" value="RestSession" style="text;html=1;align=center;verticalAlign=middle;whiteSpace=wrap;rounded=0;fontFamily=Helvetica;fontSize=10;" vertex="1" parent="1">
          <mxGeometry x="1880" y="288" width="71" height="30" as="geometry" />
        </mxCell>
        <mxCell id="khSafvsSSUewSuaT2HWd-4" value="MainSession" style="text;html=1;align=center;verticalAlign=middle;whiteSpace=wrap;rounded=0;fontFamily=Helvetica;fontSize=10;" vertex="1" parent="1">
          <mxGeometry x="1510" y="288" width="80" height="30" as="geometry" />
        </mxCell>
        <mxCell id="a-SGA_csve0d15C5jlOn-6" style="edgeStyle=orthogonalEdgeStyle;rounded=0;orthogonalLoop=1;jettySize=auto;html=1;exitX=1;exitY=0.75;exitDx=0;exitDy=0;entryX=0.5;entryY=0;entryDx=0;entryDy=0;curved=1;" edge="1" parent="1" source="MmJNo8ZiRcWZj8HR9yvj-11" target="MmJNo8ZiRcWZj8HR9yvj-12">
          <mxGeometry relative="1" as="geometry" />
        </mxCell>
        <mxCell id="MmJNo8ZiRcWZj8HR9yvj-11" value="&lt;font color=&quot;#5c79a4&quot; style=&quot;font-size: 16px;&quot;&gt;MainSession&lt;/font&gt;&lt;div&gt;&lt;span style=&quot;font-size: 16px;&quot;&gt;&amp;nbsp;- RestRequest&lt;br&gt;&lt;/span&gt;&lt;div&gt;&lt;font style=&quot;font-size: 16px;&quot;&gt;&amp;nbsp;- RestRequest&lt;/font&gt;&lt;/div&gt;&lt;/div&gt;" style="text;html=1;align=left;verticalAlign=middle;whiteSpace=wrap;rounded=0;fontFamily=Architects Daughter;fontSource=https%3A%2F%2Ffonts.googleapis.com%2Fcss%3Ffamily%3DArchitects%2BDaughter;fontColor=#456F2C;" vertex="1" parent="1">
          <mxGeometry x="1847" y="394" width="124" height="54.5" as="geometry" />
        </mxCell>
        <mxCell id="MmJNo8ZiRcWZj8HR9yvj-16" style="edgeStyle=orthogonalEdgeStyle;rounded=0;hachureGap=4;orthogonalLoop=1;jettySize=auto;html=1;exitX=1;exitY=0.75;exitDx=0;exitDy=0;entryX=0.5;entryY=0;entryDx=0;entryDy=0;fontFamily=Architects Daughter;fontSource=https%3A%2F%2Ffonts.googleapis.com%2Fcss%3Ffamily%3DArchitects%2BDaughter;curved=1;fontColor=#456F2C;" edge="1" parent="1" source="MmJNo8ZiRcWZj8HR9yvj-12" target="MmJNo8ZiRcWZj8HR9yvj-14">
          <mxGeometry relative="1" as="geometry" />
        </mxCell>
        <mxCell id="MmJNo8ZiRcWZj8HR9yvj-12" value="&lt;font color=&quot;#5c79a4&quot; style=&quot;font-size: 16px;&quot;&gt;RestSession&lt;/font&gt;&lt;div&gt;&lt;font style=&quot;font-size: 16px;&quot;&gt;&amp;nbsp;- RestRequest&lt;/font&gt;&lt;/div&gt;" style="text;html=1;align=left;verticalAlign=middle;whiteSpace=wrap;rounded=0;fontFamily=Architects Daughter;fontSource=https%3A%2F%2Ffonts.googleapis.com%2Fcss%3Ffamily%3DArchitects%2BDaughter;fontColor=#456F2C;" vertex="1" parent="1">
          <mxGeometry x="1940" y="458" width="116" height="43" as="geometry" />
        </mxCell>
        <mxCell id="MmJNo8ZiRcWZj8HR9yvj-14" value="&lt;font color=&quot;#5c79a4&quot; style=&quot;font-size: 16px;&quot;&gt;RestSession&lt;/font&gt;&lt;div&gt;&lt;font style=&quot;font-size: 16px;&quot;&gt;&amp;nbsp;- DatabaseRequest&lt;/font&gt;&lt;/div&gt;&lt;div&gt;&lt;span style=&quot;font-size: 16px;&quot;&gt;&amp;nbsp;- FtpRequest&lt;/span&gt;&lt;/div&gt;" style="text;html=1;align=left;verticalAlign=middle;whiteSpace=wrap;rounded=0;fontFamily=Architects Daughter;fontSource=https%3A%2F%2Ffonts.googleapis.com%2Fcss%3Ffamily%3DArchitects%2BDaughter;fontColor=#456F2C;" vertex="1" parent="1">
          <mxGeometry x="2000" y="518" width="156" height="60" as="geometry" />
        </mxCell>
        <mxCell id="rI8qwl_EJIvBNCSjrs9K-1" value="INSPECT" style="rounded=0;whiteSpace=wrap;html=1;verticalAlign=middle;fontSize=16;fontStyle=3;" vertex="1" parent="1">
          <mxGeometry x="1603" y="363.5" width="160" height="50" as="geometry" />
        </mxCell>
        <mxCell id="wyTEShEFjZR6GT54zyMF-1" value="" style="sketch=0;outlineConnect=0;fontColor=#232F3E;gradientColor=none;fillColor=#000000;strokeColor=none;dashed=0;verticalLabelPosition=bottom;verticalAlign=top;align=center;html=1;fontSize=12;fontStyle=0;aspect=fixed;pointerEvents=1;shape=mxgraph.aws4.magnifying_glass_2;" vertex="1" parent="1">
          <mxGeometry x="1793" y="356" width="47" height="47" as="geometry" />
        </mxCell>
        <mxCell id="grRGX56FEaODvwbck3P--2" value="FTP" style="ellipse;shape=cloud;whiteSpace=wrap;html=1;fontSize=13;fontStyle=3;" vertex="1" parent="1">
          <mxGeometry x="2070" y="90" width="120" height="90" as="geometry" />
        </mxCell>
        <mxCell id="grRGX56FEaODvwbck3P--4" style="rounded=0;orthogonalLoop=1;jettySize=auto;html=1;exitX=1;exitY=0.5;exitDx=0;exitDy=0;entryX=0.16;entryY=0.55;entryDx=0;entryDy=0;entryPerimeter=0;" edge="1" parent="1" source="bb7agJlHVT44qzU_Prj4-1" target="grRGX56FEaODvwbck3P--2">
          <mxGeometry relative="1" as="geometry" />
        </mxCell>
        <mxCell id="a-SGA_csve0d15C5jlOn-1" value="GATEWAY" style="rounded=0;whiteSpace=wrap;html=1;verticalAlign=middle;fontSize=16;fontStyle=3;" vertex="1" parent="1">
          <mxGeometry x="1603" y="120" width="160" height="50" as="geometry" />
        </mxCell>
        <mxCell id="ODAyQVb5Fvs4qEcVlxiO-1" value="&lt;font style=&quot;font-size: 12px;&quot;&gt;INSPECT &lt;/font&gt;&lt;font style=&quot;font-size: 8px;&quot;&gt;inside&lt;/font&gt;" style="text;strokeColor=none;fillColor=none;html=1;fontSize=24;fontStyle=1;verticalAlign=middle;align=center;fontColor=default;" vertex="1" parent="1">
          <mxGeometry x="1437" y="204.5" width="90" height="40" as="geometry" />
        </mxCell>
        <mxCell id="ODAyQVb5Fvs4qEcVlxiO-3" value="&lt;font style=&quot;font-size: 12px;&quot;&gt;INSPECT &lt;/font&gt;&lt;font style=&quot;font-size: 8px;&quot;&gt;inside&lt;/font&gt;" style="text;strokeColor=none;fillColor=none;html=1;fontSize=24;fontStyle=1;verticalAlign=middle;align=center;fontColor=default;" vertex="1" parent="1">
          <mxGeometry x="1680" y="204.75" width="90" height="40" as="geometry" />
        </mxCell>
        <mxCell id="ODAyQVb5Fvs4qEcVlxiO-4" value="&lt;font style=&quot;font-size: 12px;&quot;&gt;INSPECT &lt;/font&gt;&lt;font style=&quot;font-size: 8px;&quot;&gt;inside&lt;/font&gt;" style="text;strokeColor=none;fillColor=none;html=1;fontSize=24;fontStyle=1;verticalAlign=middle;align=center;fontColor=default;" vertex="1" parent="1">
          <mxGeometry x="1926" y="204.5" width="90" height="40" as="geometry" />
        </mxCell>
      </root>
    </mxGraphModel>
  </diagram>
</mxfile>
